<?xml version="1.0" encoding="UTF-8" standalone="no"?>
<svg width="100px" height="59px" viewBox="0 0 100 59" version="1.1" xmlns="http://www.w3.org/2000/svg" xmlns:xlink="http://www.w3.org/1999/xlink" xmlns:sketch="http://www.bohemiancoding.com/sketch/ns">
    <!-- Generator: Sketch 3.2.2 (9983) - http://www.bohemiancoding.com/sketch -->
    <title>bike</title>
    <desc>Created with Sketch.</desc>
    <defs></defs>
    <g id="designs" stroke="none" stroke-width="1" fill="none" fill-rule="evenodd" sketch:type="MSPage">
        <g id="Desktop-1024w" sketch:type="MSArtboardGroup" transform="translate(-456.000000, -2751.000000)">
            <g id="bike" sketch:type="MSLayerGroup" transform="translate(455.000000, 2751.000000)">
                <g id="Group" sketch:type="MSShapeGroup">
                    <path d="M84.729,19.807 C81.283,19.245 77.877,19.654 74.79,20.828 C73.526,17.961 72.262,15.093 70.997,12.226 C69.52,8.878 68.044,5.53 66.568,2.182 C65.813,0.472 64.003,0.735 62.448,0.735 L55.716,0.735 C53.767,0.735 53.75,3.753 55.694,3.753 L63.236,3.753 L63.985,3.753 C64.118,4.056 64.252,4.359 64.385,4.662 C65.33,6.806 66.276,8.95 67.221,11.094 L39.09,11.094 L33.34,11.094 C33.291,11.094 33.248,11.104 33.201,11.108 C33.169,11.111 33.137,11.112 33.104,11.118 C32.878,11.149 32.684,11.223 32.521,11.33 C32.501,11.342 32.481,11.352 32.462,11.365 C32.446,11.376 32.432,11.39 32.417,11.402 C32.253,11.521 32.112,11.668 32.023,11.849 C30.535,14.88 29.047,17.911 27.559,20.943 C26.288,20.432 24.956,20.036 23.561,19.809 C14.148,18.273 5.014,23.923 1.951,32.896 C-1.1,41.835 3.237,51.921 11.532,56.222 C15.71,58.387 20.596,58.878 25.153,57.774 C29.607,56.693 33.436,53.922 36.148,50.278 C38.258,47.443 39.452,43.974 39.737,40.462 L50.486,40.462 L54.571,40.462 C54.7,40.462 54.819,40.447 54.931,40.423 C55.561,40.558 56.306,40.275 56.605,39.707 C60.819,31.699 65.032,23.691 69.246,15.684 C69.683,16.672 70.118,17.66 70.554,18.648 C71.064,19.804 71.574,20.96 72.083,22.115 C67.991,24.437 64.723,28.205 63.122,32.896 C60.07,41.835 64.406,51.921 72.701,56.222 C76.88,58.387 81.766,58.878 86.322,57.774 C90.775,56.693 94.605,53.922 97.317,50.278 C99.726,47.041 100.942,42.976 100.973,38.964 C100.899,29.583 94.041,21.325 84.729,19.807 L84.729,19.807 Z M20.121,55.339 C11.001,55.27 3.801,47.381 4.009,38.399 C4.215,29.509 11.901,22.493 20.663,22.561 C22.623,22.576 24.492,22.973 26.227,23.648 C23.938,28.311 21.649,32.973 19.36,37.635 C19.268,37.822 19.177,38.009 19.085,38.196 C18.597,39.189 19.186,40.46 20.38,40.46 L36.694,40.46 C35.857,48.85 28.711,55.406 20.121,55.339 L20.121,55.339 Z M28.918,24.998 C33.187,27.666 36.175,32.258 36.697,37.442 L24.488,37.442 L22.809,37.442 C24.845,33.293 26.881,29.146 28.918,24.998 L28.918,24.998 Z M39.722,37.441 C39.175,31.112 35.557,25.459 30.255,22.274 C31.389,19.963 32.524,17.653 33.658,15.342 C39.619,22.491 45.58,29.641 51.541,36.79 C51.722,37.007 51.902,37.224 52.084,37.44 C47.963,37.441 43.842,37.441 39.722,37.441 L39.722,37.441 Z M55.008,36.26 C49.033,29.093 43.058,21.927 37.083,14.76 C36.902,14.543 36.722,14.327 36.541,14.111 L63.4,14.111 L66.663,14.111 C62.778,21.493 58.894,28.876 55.008,36.26 L55.008,36.26 Z M81.291,55.339 C72.172,55.27 64.971,47.381 65.179,38.399 C65.312,32.624 68.613,27.654 73.304,24.889 C75.653,30.214 78,35.539 80.349,40.863 C80.682,41.616 81.767,41.779 82.413,41.401 C83.184,40.949 83.281,40.087 82.95,39.335 C80.638,34.09 78.324,28.846 76.012,23.601 C77.844,22.923 79.807,22.546 81.833,22.561 C90.713,22.629 97.886,30.166 97.953,38.94 C97.883,48.045 90.394,55.41 81.291,55.339 L81.291,55.339 Z" id="Shape" fill="#434450"></path>
                    <path d="M31.912,9.174 C34.169,9.154 39.121,9.133 39.513,6.086 C39.617,5.273 38.763,4.566 38.015,4.566 L25.853,4.566 C25.116,4.566 24.228,5.243 24.333,6.064 C24.726,9.126 29.63,9.154 31.912,9.174 L31.912,9.174 Z" id="Shape" fill="#434550"></path>
                </g>
            </g>
        </g>
    </g>
</svg>