<?xml version="1.0" encoding="UTF-8" standalone="no"?>
<svg width="331px" height="67px" viewBox="0 0 331 67" version="1.1" xmlns="http://www.w3.org/2000/svg" xmlns:xlink="http://www.w3.org/1999/xlink" xmlns:sketch="http://www.bohemiancoding.com/sketch/ns">
    <!-- Generator: Sketch 3.3.2 (12043) - http://www.bohemiancoding.com/sketch -->
    <title>Details 2</title>
    <desc>Created with Sketch.</desc>
    <defs></defs>
    <g id="designs" stroke="none" stroke-width="1" fill="none" fill-rule="evenodd" sketch:type="MSPage">
        <g id="Desktop-1024w" sketch:type="MSArtboardGroup" transform="translate(-339.000000, -619.000000)" fill="#25262D">
            <g id="Details-2" sketch:type="MSLayerGroup" transform="translate(339.000000, 619.000000)">
                <g id="3" transform="translate(270.000000, 0.000000)" sketch:type="MSShapeGroup">
                    <path d="M0.844,66 L3.612,66 L3.532,56.224 L6.172,66 L9.052,66 L11.788,56.304 L11.644,66 L14.668,66 L14.652,54.432 L9.628,54.448 L7.804,62.272 L5.884,54.448 L0.844,54.448 L0.844,66 Z M18.796,66 L22.092,66 L22.092,54.448 L18.796,54.448 L18.796,66 Z M26.236,66 L34.668,66 L34.668,63.728 L29.484,63.728 L29.484,54.448 L26.236,54.448 L26.236,66 Z M38.044,66 L46.844,66 L46.844,63.76 L41.212,63.76 L41.212,61.296 L46.396,61.296 L46.396,59.088 L41.212,59.088 L41.212,56.688 L46.716,56.688 L46.716,54.48 L38.044,54.48 L38.044,66 Z M50.284,62.32 C50.3,62.816 50.316,63.952 51.164,64.88 C52.22,66.064 54.156,66.256 55.356,66.256 C58.252,66.256 60.46,65.104 60.46,62.528 C60.46,60.08 58.636,59.6 57.1,59.2 L54.94,58.64 C54.476,58.512 53.772,58.304 53.772,57.456 C53.772,56.768 54.364,56.24 55.292,56.24 C56.828,56.24 56.812,57.488 56.812,57.84 L60.06,57.84 C60.044,56.608 59.852,54.16 55.34,54.16 C51.884,54.16 50.476,55.904 50.476,57.776 C50.476,60.192 52.54,60.736 53.34,60.944 L56.172,61.68 C56.94,61.888 57.164,62.256 57.164,62.8 C57.164,64.112 55.724,64.112 55.452,64.112 C53.548,64.112 53.516,62.784 53.5,62.32 L50.284,62.32 Z" id="MILES"></path>
                    <path d="M9.08000001,20.04 C7.34000001,20.04 6.32000001,21.9 5.57000001,23.58 L6.59000001,25.02 C7.13000001,23.82 7.79000001,22.32 9.08000001,22.32 C9.80000001,22.32 10.52,22.74 11.15,23.07 C11.99,23.49 13.58,24.39 14.48,24.39 C16.13,24.39 17.24,22.68 17.96,21.06 L16.94,19.65 C16.46,20.73 15.62,22.14 14.51,22.14 C13.88,22.14 12.95,21.6 11.96,21.09 C11,20.55 9.95000001,20.04 9.08000001,20.04 L9.08000001,20.04 Z" id="~"></path>
                    <path d="M23.4,11.84 L27.12,11.84 L27.12,6.86 C27.12,4.46 27.9,3.32 29.52,3.32 C31.14,3.32 31.92,4.46 31.92,6.86 L31.92,10.28 C31.92,12.38 31.68,14.18 30.96,16.22 L22.86,39.98 L22.86,44 L35.7,44 L35.7,40.64 L26.34,40.64 L34.68,16.64 C35.28,14.9 35.64,12.56 35.64,10.94 L35.64,6.74 C35.64,2.78 33.66,0.32 29.7,0.32 C25.32,0.32 23.4,2.48 23.4,6.8 L23.4,11.84 Z M40.08,24.98 L43.8,24.98 L43.8,23.24 C43.8,21.02 44.34,19.7 46.32,19.7 C48.24,19.7 48.78,21.02 48.78,23.24 L48.78,37.82 C48.78,40.04 48.24,41.36 46.26,41.36 C44.22,41.36 43.68,40.04 43.68,37.82 L43.68,31.94 L39.96,31.94 L39.96,37.82 C39.96,41.72 41.76,44.36 46.26,44.36 C50.7,44.36 52.5,41.72 52.5,37.82 L52.5,22.28 C52.5,18.38 50.52,16.7 47.52,16.7 C46.02,16.7 44.7,17.48 43.92,18.68 L43.8,18.68 L43.8,4.04 L52.2,4.04 L52.2,0.68 L40.08,0.68 L40.08,24.98 Z" id="25"></path>
                </g>
                <g id="2" transform="translate(135.000000, 0.000000)" sketch:type="MSShapeGroup">
                    <path d="M14.864,62.32 C14.88,62.816 14.896,63.952 15.744,64.88 C16.8,66.064 18.736,66.256 19.936,66.256 C22.832,66.256 25.04,65.104 25.04,62.528 C25.04,60.08 23.216,59.6 21.68,59.2 L19.52,58.64 C19.056,58.512 18.352,58.304 18.352,57.456 C18.352,56.768 18.944,56.24 19.872,56.24 C21.408,56.24 21.392,57.488 21.392,57.84 L24.64,57.84 C24.624,56.608 24.432,54.16 19.92,54.16 C16.464,54.16 15.056,55.904 15.056,57.776 C15.056,60.192 17.12,60.736 17.92,60.944 L20.752,61.68 C21.52,61.888 21.744,62.256 21.744,62.8 C21.744,64.112 20.304,64.112 20.032,64.112 C18.128,64.112 18.096,62.784 18.08,62.32 L14.864,62.32 Z M31.104,66 L34.336,66 L34.336,56.736 L37.936,56.736 L37.936,54.448 L27.584,54.448 L27.584,56.736 L31.104,56.736 L31.104,66 Z M38.384,66 L41.584,66 L42.368,63.68 L46.992,63.68 L47.792,66 L51.408,66 L46.848,54.448 L42.944,54.448 L38.384,66 Z M43.12,61.552 L44.72,56.704 L44.768,56.704 L46.256,61.552 L43.12,61.552 Z M54.624,66 L57.84,66 L57.84,61.488 L59.184,61.488 C60.624,61.488 60.672,62 60.816,63.392 C60.928,64.416 61.008,65.296 61.2,66 L64.672,66 C64.4,65.184 64.24,63.936 64.128,63.152 C63.872,61.376 63.744,60.384 61.504,60.32 L61.504,60.256 C61.824,60.208 62.528,60.128 63.264,59.664 C63.808,59.328 64.32,58.784 64.32,57.52 C64.32,56.272 63.872,55.632 63.52,55.28 C62.832,54.576 62.048,54.448 59.968,54.448 L54.624,54.448 L54.624,66 Z M57.84,56.576 L59.04,56.576 C59.968,56.576 61.216,56.576 61.216,58 C61.216,58.368 61.072,59.088 60.368,59.312 C60.096,59.408 59.744,59.408 59.04,59.408 L57.84,59.408 L57.84,56.576 Z M70.816,66 L74.048,66 L74.048,56.736 L77.648,56.736 L77.648,54.448 L67.296,54.448 L67.296,56.736 L70.816,56.736 L70.816,66 Z" id="START"></path>
                    <path d="M4.86,44 L8.82,44 L8.82,0.68 L5.4,0.68 C4.38,1.64 2.34,3.2 0.9,3.86 L0.9,7.88 C2.04,7.28 3.96,5.96 4.86,5.18 L4.86,44 Z M22.42,44 L26.38,44 L26.38,0.68 L22.96,0.68 C21.94,1.64 19.9,3.2 18.46,3.86 L18.46,7.88 C19.6,7.28 21.52,5.96 22.42,5.18 L22.42,44 Z M35.18,44 L39.14,44 L39.14,39.44 L35.18,39.44 L35.18,44 Z M35.18,15.86 L39.14,15.86 L39.14,11.3 L35.18,11.3 L35.18,15.86 Z M44.4,37.94 C44.4,43.4 47.88,44.36 50.58,44.36 C53.28,44.36 56.76,43.4 56.76,37.94 L56.76,6.74 C56.76,1.28 53.28,0.32 50.58,0.32 C47.88,0.32 44.4,1.28 44.4,6.74 L44.4,37.94 Z M53.04,38.36 C53.04,39.44 53.04,41.36 50.58,41.36 C48.12,41.36 48.12,39.44 48.12,38.36 L48.12,6.32 C48.12,5.24 48.12,3.32 50.58,3.32 C53.04,3.32 53.04,5.24 53.04,6.32 L53.04,38.36 Z M61.96,37.94 C61.96,43.4 65.44,44.36 68.14,44.36 C70.84,44.36 74.32,43.4 74.32,37.94 L74.32,6.74 C74.32,1.28 70.84,0.32 68.14,0.32 C65.44,0.32 61.96,1.28 61.96,6.74 L61.96,37.94 Z M70.6,38.36 C70.6,39.44 70.6,41.36 68.14,41.36 C65.68,41.36 65.68,39.44 65.68,38.36 L65.68,6.32 C65.68,5.24 65.68,3.32 68.14,3.32 C70.6,3.32 70.6,5.24 70.6,6.32 L70.6,38.36 Z M88.22,38 C88.22,40.16 87.26,41.36 85.64,41.36 C83.66,41.36 83.3,40.1 83.3,37.76 L83.3,30.32 C83.3,27.56 86.3,26.78 88.22,26.78 L88.22,38 Z M88.22,23.78 C82.34,23.78 79.58,26 79.58,30.08 L79.58,38.96 C79.58,42.26 81.14,44.36 84.02,44.36 C86.24,44.36 87.32,43.52 88.34,42.26 L88.46,42.26 L88.46,44 L91.94,44 L91.94,16.64 C91.94,12.44 89.78,10.94 86.18,10.94 C82.76,10.94 79.94,12.98 79.94,16.34 L79.94,20.18 L83.66,20.18 L83.66,17.12 C83.66,15.2 83.96,13.94 86.06,13.94 C87.56,13.94 88.22,14.72 88.22,16.7 L88.22,23.78 Z" id="11:00a"></path>
                </g>
                <g id="1" sketch:type="MSShapeGroup">
                    <path d="M0.532,66 L5.444,66 C6.244,66 7.652,66 8.836,65.552 C11.172,64.64 11.988,62.752 11.988,60.192 C11.988,58.48 11.524,56.576 9.812,55.408 C8.612,54.592 6.788,54.448 5.412,54.448 L0.532,54.448 L0.532,66 Z M3.812,56.64 L5.076,56.656 C6.052,56.656 8.676,56.656 8.676,60.16 C8.676,62.848 7.316,63.76 5.188,63.776 L3.812,63.776 L3.812,56.64 Z M15.796,66 L24.596,66 L24.596,63.76 L18.964,63.76 L18.964,61.296 L24.148,61.296 L24.148,59.088 L18.964,59.088 L18.964,56.688 L24.468,56.688 L24.468,54.48 L15.796,54.48 L15.796,66 Z M35.7,66 L38.468,66 L38.388,56.224 L41.028,66 L43.908,66 L46.644,56.304 L46.5,66 L49.524,66 L49.508,54.432 L44.484,54.448 L42.66,62.272 L40.74,54.448 L35.7,54.448 L35.7,66 Z M52.82,66 L56.02,66 L56.804,63.68 L61.428,63.68 L62.228,66 L65.844,66 L61.284,54.448 L57.38,54.448 L52.82,66 Z M57.556,61.552 L59.156,56.704 L59.204,56.704 L60.692,61.552 L57.556,61.552 Z M65.956,54.448 L70.356,61.776 L70.356,66 L73.588,66 L73.588,61.92 L78.1,54.448 L74.804,54.448 L72.196,59.296 L69.668,54.448 L65.956,54.448 Z M80.948,60.272 C80.948,64.576 83.812,66.272 86.884,66.272 C89.636,66.272 92.9,64.864 92.9,60.256 C92.9,57.44 91.652,54.128 87.044,54.128 C86.196,54.128 83.988,54.256 82.532,55.728 C81.076,57.2 80.948,59.504 80.948,60.272 L80.948,60.272 Z M84.244,60.256 C84.244,58.272 84.82,56.448 86.932,56.448 C87.636,56.448 88.388,56.64 88.852,57.28 C89.204,57.792 89.588,58.592 89.588,60.208 C89.588,61.808 89.204,63.92 86.916,63.92 C84.788,63.92 84.244,62.096 84.244,60.256 L84.244,60.256 Z" id="DE-MAYO"></path>
                    <path d="M21.72,23.3 L23.94,23.3 C25.44,23.3 26.4,24.56 26.4,26 L26.4,38.66 C26.4,40.1 25.44,41.36 23.94,41.36 C22.44,41.36 21.48,40.1 21.48,38.66 L21.48,31.94 L17.76,31.94 L17.76,37.82 C17.76,41.72 19.56,44.36 23.94,44.36 C28.32,44.36 30.12,41.72 30.12,37.82 L30.12,25.76 C30.12,22.94 29.16,21.98 27,21.62 L27,21.5 C29.16,20.6 30.12,19.88 30.12,16.7 L30.12,6.86 C30.12,2.96 28.32,0.32 23.94,0.32 C19.56,0.32 17.76,2.96 17.76,6.86 L17.76,12.02 L21.48,12.02 L21.48,6.02 C21.48,4.58 22.44,3.32 23.94,3.32 C25.44,3.32 26.4,4.58 26.4,6.02 L26.4,17.24 C26.4,18.68 25.44,19.94 23.94,19.94 L21.72,19.94 L21.72,23.3 Z M40.18,44 L44.14,44 L44.14,0.68 L40.72,0.68 C39.7,1.64 37.66,3.2 36.22,3.86 L36.22,7.88 C37.36,7.28 39.28,5.96 40.18,5.18 L40.18,44 Z M60.56,21.02 L64.04,21.02 L64.04,15.62 C64.04,13.64 62.78,10.94 58.82,10.94 C55.46,10.94 53,12.98 53,16.58 L53,20.78 C53,22.58 53.66,23.72 54.74,25.16 L59,30.98 C59.9,32.18 60.38,33.38 60.38,34.58 L60.38,38.54 C60.38,40.04 60.08,41.36 58.58,41.36 C56.96,41.36 56.72,40.1 56.72,38.6 L56.72,33.56 L53,33.56 L53,39.26 C53,42.92 55.46,44.36 58.52,44.36 C62.12,44.36 64.1,42.38 64.1,38.84 L64.1,33.32 C64.1,31.82 63.68,30.98 62.78,29.72 L58.1,23.18 C57.14,21.8 56.72,20.9 56.72,19.94 L56.72,16.28 C56.72,15.02 57.14,13.94 58.64,13.94 C59.84,13.94 60.56,14.66 60.56,16.16 L60.56,21.02 Z M70.08,11.3 L68.22,11.3 L68.22,14.3 L70.08,14.3 L70.08,39.98 C70.08,42.5 71.52,44 74.64,44 L76.44,44 L76.44,41 L75.66,41 C74.58,41 73.8,40.64 73.8,39.14 L73.8,14.3 L76.44,14.3 L76.44,11.3 L73.8,11.3 L73.8,5.48 L70.08,6.92 L70.08,11.3 Z" id="31st"></path>
                </g>
            </g>
        </g>
    </g>
</svg>