<?xml version="1.0" encoding="UTF-8" standalone="no"?>
<svg width="333px" height="372px" viewBox="0 0 333 372" version="1.1" xmlns="http://www.w3.org/2000/svg" xmlns:xlink="http://www.w3.org/1999/xlink" xmlns:sketch="http://www.bohemiancoding.com/sketch/ns">
    <!-- Generator: Sketch 3.2.2 (9983) - http://www.bohemiancoding.com/sketch -->
    <title>Logo Type</title>
    <desc>Created with Sketch.</desc>
    <defs></defs>
    <g id="designs" stroke="none" stroke-width="1" fill="none" fill-rule="evenodd" sketch:type="MSPage">
        <g id="Desktop-1024w" sketch:type="MSArtboardGroup" transform="translate(-344.000000, -117.000000)">
            <g id="Logo-Type" sketch:type="MSLayerGroup" transform="translate(344.000000, 117.000000)">
                <path d="M21.32,370.04 L33.2,370.04 L33.2,250.16 L46.52,250.16 L46.52,240.08 L8,240.08 L8,250.16 L21.32,250.16 L21.32,370.04 Z M126.8,370.04 L138.68,370.04 L119.6,240.08 L103.4,240.08 L84.32,370.04 L96.2,370.04 L101.06,334.04 L121.94,334.04 L126.8,370.04 Z M120.68,323.96 L102.32,323.96 L111.32,249.08 L111.68,249.08 L120.68,323.96 Z M209.96,274.1 L221.84,274.1 L221.84,257 C221.84,246.02 215.72,239 203.3,239 C190.88,239 184.76,246.02 184.76,257 L184.76,353.12 C184.76,364.1 190.88,371.12 203.3,371.12 C215.72,371.12 221.84,364.1 221.84,353.12 L221.84,334.58 L209.96,334.58 L209.96,352.76 C209.96,358.34 207.98,361.04 203.3,361.04 C198.62,361.04 196.64,358.34 196.64,352.76 L196.64,257.36 C196.64,251.78 198.62,249.08 203.3,249.08 C207.98,249.08 209.96,251.78 209.96,257.36 L209.96,274.1 Z M270.8,349.16 C270.8,361.94 275.66,371.12 291.68,371.12 C307.7,371.12 312.56,361.94 312.56,349.16 L312.56,260.96 C312.56,248.18 307.7,239 291.68,239 C275.66,239 270.8,248.18 270.8,260.96 L270.8,349.16 Z M282.68,261.32 C282.68,254.12 284.12,249.08 291.68,249.08 C299.24,249.08 300.68,254.12 300.68,261.32 L300.68,348.8 C300.68,356 299.24,361.04 291.68,361.04 C284.12,361.04 282.68,356 282.68,348.8 L282.68,261.32 Z" id="TACO-Shadow" fill="#FF5D28" sketch:type="MSShapeGroup"></path>
                <path d="M13.32,139.04 L25.2,139.04 L25.2,19.16 L38.52,19.16 L38.52,9.08 L0,9.08 L0,19.16 L13.32,19.16 L13.32,139.04 Z M87.84,118.16 C87.84,130.94 92.7,140.12 108.72,140.12 C124.74,140.12 129.6,130.94 129.6,118.16 L129.6,29.96 C129.6,17.18 124.74,8 108.72,8 C92.7,8 87.84,17.18 87.84,29.96 L87.84,118.16 Z M99.72,30.32 C99.72,23.12 101.16,18.08 108.72,18.08 C116.28,18.08 117.72,23.12 117.72,30.32 L117.72,117.8 C117.72,125 116.28,130.04 108.72,130.04 C101.16,130.04 99.72,125 99.72,117.8 L99.72,30.32 Z M213.84,117.8 C213.84,127.16 210.96,130.04 204.84,130.04 C198.9,130.04 195.84,127.16 195.84,117.8 L195.84,9.08 L183.96,9.08 L183.96,121.58 C183.96,135.98 194.76,140.12 204.66,140.12 C214.92,140.12 225.72,135.98 225.72,121.58 L225.72,9.08 L213.84,9.08 L213.84,117.8 Z M291.96,66.5 L291.96,19.16 L298.62,19.16 C304.74,19.16 308.7,20.42 308.7,27.98 L308.7,57.14 C308.7,64.88 305.46,66.5 299.88,66.5 L291.96,66.5 Z M309.24,139.04 L321.12,139.04 L321.12,83.42 C321.12,74.42 316.08,71.9 307.62,71.36 L307.62,71 C316.8,70.46 320.58,67.04 320.58,56.96 L320.58,24.02 C320.58,11.06 313.56,9.08 302.22,9.08 L280.08,9.08 L280.08,139.04 L291.96,139.04 L291.96,76.58 L299.88,76.58 C305.46,76.58 309.24,78.2 309.24,84.5 L309.24,139.04 Z" id="TOUR-Shadow" fill="#FF5D28" sketch:type="MSShapeGroup"></path>
                <path d="M27.32,367.04 L39.2,367.04 L39.2,247.16 L52.52,247.16 L52.52,237.08 L14,237.08 L14,247.16 L27.32,247.16 L27.32,367.04 Z M132.8,367.04 L144.68,367.04 L125.6,237.08 L109.4,237.08 L90.32,367.04 L102.2,367.04 L107.06,331.04 L127.94,331.04 L132.8,367.04 Z M126.68,320.96 L108.32,320.96 L117.32,246.08 L117.68,246.08 L126.68,320.96 Z M215.96,271.1 L227.84,271.1 L227.84,254 C227.84,243.02 221.72,236 209.3,236 C196.88,236 190.76,243.02 190.76,254 L190.76,350.12 C190.76,361.1 196.88,368.12 209.3,368.12 C221.72,368.12 227.84,361.1 227.84,350.12 L227.84,331.58 L215.96,331.58 L215.96,349.76 C215.96,355.34 213.98,358.04 209.3,358.04 C204.62,358.04 202.64,355.34 202.64,349.76 L202.64,254.36 C202.64,248.78 204.62,246.08 209.3,246.08 C213.98,246.08 215.96,248.78 215.96,254.36 L215.96,271.1 Z M276.8,346.16 C276.8,358.94 281.66,368.12 297.68,368.12 C313.7,368.12 318.56,358.94 318.56,346.16 L318.56,257.96 C318.56,245.18 313.7,236 297.68,236 C281.66,236 276.8,245.18 276.8,257.96 L276.8,346.16 Z M288.68,258.32 C288.68,251.12 290.12,246.08 297.68,246.08 C305.24,246.08 306.68,251.12 306.68,258.32 L306.68,345.8 C306.68,353 305.24,358.04 297.68,358.04 C290.12,358.04 288.68,353 288.68,345.8 L288.68,258.32 Z" id="TACO-Shadow" fill="#FFFFFF" sketch:type="MSShapeGroup"></path>
                <path d="M19.32,136.04 L31.2,136.04 L31.2,16.16 L44.52,16.16 L44.52,6.08 L6,6.08 L6,16.16 L19.32,16.16 L19.32,136.04 Z M93.84,115.16 C93.84,127.94 98.7,137.12 114.72,137.12 C130.74,137.12 135.6,127.94 135.6,115.16 L135.6,26.96 C135.6,14.18 130.74,5 114.72,5 C98.7,5 93.84,14.18 93.84,26.96 L93.84,115.16 Z M105.72,27.32 C105.72,20.12 107.16,15.08 114.72,15.08 C122.28,15.08 123.72,20.12 123.72,27.32 L123.72,114.8 C123.72,122 122.28,127.04 114.72,127.04 C107.16,127.04 105.72,122 105.72,114.8 L105.72,27.32 Z M219.84,114.8 C219.84,124.16 216.96,127.04 210.84,127.04 C204.9,127.04 201.84,124.16 201.84,114.8 L201.84,6.08 L189.96,6.08 L189.96,118.58 C189.96,132.98 200.76,137.12 210.66,137.12 C220.92,137.12 231.72,132.98 231.72,118.58 L231.72,6.08 L219.84,6.08 L219.84,114.8 Z M297.96,63.5 L297.96,16.16 L304.62,16.16 C310.74,16.16 314.7,17.42 314.7,24.98 L314.7,54.14 C314.7,61.88 311.46,63.5 305.88,63.5 L297.96,63.5 Z M315.24,136.04 L327.12,136.04 L327.12,80.42 C327.12,71.42 322.08,68.9 313.62,68.36 L313.62,68 C322.8,67.46 326.58,64.04 326.58,53.96 L326.58,21.02 C326.58,8.06 319.56,6.08 308.22,6.08 L286.08,6.08 L286.08,136.04 L297.96,136.04 L297.96,73.58 L305.88,73.58 C311.46,73.58 315.24,75.2 315.24,81.5 L315.24,136.04 Z" id="TOUR-Shadow" fill="#FFFFFF" sketch:type="MSShapeGroup"></path>
                <path d="M32.32,362.04 L44.2,362.04 L44.2,242.16 L57.52,242.16 L57.52,232.08 L19,232.08 L19,242.16 L32.32,242.16 L32.32,362.04 Z M137.8,362.04 L149.68,362.04 L130.6,232.08 L114.4,232.08 L95.32,362.04 L107.2,362.04 L112.06,326.04 L132.94,326.04 L137.8,362.04 Z M131.68,315.96 L113.32,315.96 L122.32,241.08 L122.68,241.08 L131.68,315.96 Z M220.96,266.1 L232.84,266.1 L232.84,249 C232.84,238.02 226.72,231 214.3,231 C201.88,231 195.76,238.02 195.76,249 L195.76,345.12 C195.76,356.1 201.88,363.12 214.3,363.12 C226.72,363.12 232.84,356.1 232.84,345.12 L232.84,326.58 L220.96,326.58 L220.96,344.76 C220.96,350.34 218.98,353.04 214.3,353.04 C209.62,353.04 207.64,350.34 207.64,344.76 L207.64,249.36 C207.64,243.78 209.62,241.08 214.3,241.08 C218.98,241.08 220.96,243.78 220.96,249.36 L220.96,266.1 Z M281.8,341.16 C281.8,353.94 286.66,363.12 302.68,363.12 C318.7,363.12 323.56,353.94 323.56,341.16 L323.56,252.96 C323.56,240.18 318.7,231 302.68,231 C286.66,231 281.8,240.18 281.8,252.96 L281.8,341.16 Z M293.68,253.32 C293.68,246.12 295.12,241.08 302.68,241.08 C310.24,241.08 311.68,246.12 311.68,253.32 L311.68,340.8 C311.68,348 310.24,353.04 302.68,353.04 C295.12,353.04 293.68,348 293.68,340.8 L293.68,253.32 Z" id="TACO" fill="#13B774" sketch:type="MSShapeGroup"></path>
                <path d="M24.32,131.04 L36.2,131.04 L36.2,11.16 L49.52,11.16 L49.52,1.08 L11,1.08 L11,11.16 L24.32,11.16 L24.32,131.04 Z M98.84,110.16 C98.84,122.94 103.7,132.12 119.72,132.12 C135.74,132.12 140.6,122.94 140.6,110.16 L140.6,21.96 C140.6,9.18 135.74,0 119.72,0 C103.7,0 98.84,9.18 98.84,21.96 L98.84,110.16 Z M110.72,22.32 C110.72,15.12 112.16,10.08 119.72,10.08 C127.28,10.08 128.72,15.12 128.72,22.32 L128.72,109.8 C128.72,117 127.28,122.04 119.72,122.04 C112.16,122.04 110.72,117 110.72,109.8 L110.72,22.32 Z M224.84,109.8 C224.84,119.16 221.96,122.04 215.84,122.04 C209.9,122.04 206.84,119.16 206.84,109.8 L206.84,1.08 L194.96,1.08 L194.96,113.58 C194.96,127.98 205.76,132.12 215.66,132.12 C225.92,132.12 236.72,127.98 236.72,113.58 L236.72,1.08 L224.84,1.08 L224.84,109.8 Z M302.96,58.5 L302.96,11.16 L309.62,11.16 C315.74,11.16 319.7,12.42 319.7,19.98 L319.7,49.14 C319.7,56.88 316.46,58.5 310.88,58.5 L302.96,58.5 Z M320.24,131.04 L332.12,131.04 L332.12,75.42 C332.12,66.42 327.08,63.9 318.62,63.36 L318.62,63 C327.8,62.46 331.58,59.04 331.58,48.96 L331.58,16.02 C331.58,3.06 324.56,1.08 313.22,1.08 L291.08,1.08 L291.08,131.04 L302.96,131.04 L302.96,68.58 L310.88,68.58 C316.46,68.58 320.24,70.2 320.24,76.5 L320.24,131.04 Z" id="TOUR" fill="#13B774" sketch:type="MSShapeGroup"></path>
                <g id="de" transform="translate(138.000000, 154.000000)" fill="#F15E2F" sketch:type="MSShapeGroup">
                    <g id="Group">
                        <path d="M26.4,30.2 L26.4,26.1 C26.4,22.7 26.6,20.7 23.4,21.8 L21.8,22.6 L21.8,38 L23.8,37.2 C26.3,36.2 26.4,34.1 26.4,30.2 L26.4,30.2 Z" id="Shape"></path>
                        <path d="M59.3,30 L57.6,26.4 L58.3,22.4 L55.7,19.3 L55.4,15.3 L52.1,13 L50.7,9.2 L47,7.9 L44.7,4.6 L40.7,4.3 L37.6,1.7 L33.6,2.4 L30,0.7 L26.4,2.4 L22.4,1.7 L19.3,4.3 L15.3,4.6 L13,7.9 L9.3,9.3 L7.9,13 L4.6,15.3 L4.3,19.3 L1.7,22.4 L2.4,26.4 L0.7,30 L2.4,33.6 L1.7,37.6 L4.3,40.7 L4.6,44.7 L7.9,47 L9.3,50.8 L13.1,52.2 L15.4,55.5 L19.4,55.8 L22.5,58.4 L26.5,57.7 L30.1,59.4 L33.7,57.7 L37.7,58.4 L40.8,55.8 L44.8,55.5 L47.1,52.2 L50.9,50.8 L52.3,47 L55.6,44.7 L55.9,40.7 L58.5,37.6 L57.8,33.6 L59.3,30 L59.3,30 Z M31.6,15 L40.1,11.7 L40.1,14.4 L34.8,16.6 L34.8,23.5 L40.1,21.8 L40.1,24.6 L34.8,26.5 L34.8,33.8 L40,32 L40,34.7 L31.5,38 L31.5,15 L31.6,15 Z M18.7,19.9 L24,17.7 C27.2,16.6 29.6,17.1 29.6,23.7 L29.6,30.5 C29.6,36.4 28.9,38.9 23.3,41 L18.7,42.7 L18.7,19.9 L18.7,19.9 Z M40.1,41.7 L18.9,49.1 L18.9,46.4 L40.1,39 L40.1,41.7 L40.1,41.7 Z" id="Shape"></path>
                    </g>
                </g>
            </g>
        </g>
    </g>
</svg>