<svg width="11" height="11" viewBox="0 0 11 11" fill="none" xmlns="http://www.w3.org/2000/svg">
<path d="M1.87615 11H9.12385C10.3786 11 11 10.3786 11 9.14775V1.85225C11 0.621401 10.3786 0 9.12385 0H1.87615C0.627376 0 0 0.615426 0 1.85225V9.14775C0 10.3846 0.627376 11 1.87615 11ZM1.8881 10.038C1.2906 10.038 0.961977 9.72135 0.961977 9.09995V1.90005C0.961977 1.27865 1.2906 0.961977 1.8881 0.961977H9.1119C9.70342 0.961977 10.038 1.27865 10.038 1.90005V9.09995C10.038 9.72135 9.70342 10.038 9.1119 10.038H1.8881ZM7.37914 6.97284C7.64204 6.97284 7.81532 6.77567 7.81532 6.49484V3.68061C7.81532 3.32211 7.62412 3.18468 7.31939 3.18468H4.48126C4.20641 3.18468 4.02716 3.35796 4.02716 3.62086C4.02716 3.88376 4.21238 4.06301 4.49321 4.06301H5.58664L6.46496 3.96741L5.53884 4.83379L3.33406 7.03259C3.25041 7.11624 3.19066 7.23574 3.19066 7.35524C3.19066 7.62412 3.36393 7.79739 3.63281 7.79739C3.77621 7.79739 3.88376 7.74362 3.96741 7.65997L6.17219 5.46116L7.03259 4.54101L6.94297 5.47311V6.50679C6.94297 6.79359 7.11624 6.97284 7.37914 6.97284Z" fill="#0033FF"/>
</svg>
