<svg width="344" height="352" viewBox="0 0 344 352" fill="none" xmlns="http://www.w3.org/2000/svg">
<rect width="344" height="352" fill="#F2F2F2"/>
<path fill-rule="evenodd" clip-rule="evenodd" d="M172.5 101.453C131.605 101.453 98.4535 134.605 98.4535 175.5C98.4535 216.395 131.605 249.547 172.5 249.547C213.395 249.547 246.547 216.395 246.547 175.5C246.547 134.605 213.395 101.453 172.5 101.453ZM73 175.5C73 120.548 117.548 76 172.5 76C227.452 76 272 120.548 272 175.5C272 230.452 227.452 275 172.5 275C117.548 275 73 230.452 73 175.5Z" fill="#222120"/>
<path d="M139 135V216H177.338C188.122 216 198.465 211.733 206.09 204.138C213.716 196.543 218 186.241 218 175.5C218 164.759 213.716 154.457 206.09 146.862C198.465 139.267 188.122 135 177.338 135H139ZM162.235 154.671H173.853C179.399 154.671 184.718 156.866 188.64 160.772C192.562 164.678 194.765 169.976 194.765 175.5C194.765 181.024 192.562 186.322 188.64 190.228C184.718 194.134 179.399 196.329 173.853 196.329H162.235V154.671Z" fill="#222120"/>
</svg>
