<svg width="344" height="352" viewBox="0 0 344 352" fill="none" xmlns="http://www.w3.org/2000/svg">
<rect width="344" height="352" fill="#F2F2F2"/>
<g clip-path="url(#clip0_3_8)">
<path d="M245.52 67.3281C252.551 67.3281 258.25 61.6582 258.25 54.664C258.25 47.6699 252.551 42 245.52 42C238.49 42 232.79 47.6699 232.79 54.664C232.79 61.6582 238.49 67.3281 245.52 67.3281Z" fill="#222120"/>
<path d="M213.759 248.042C222.718 236.942 223.723 216.23 223.805 209.721V83.7169L201.253 90.4099V97.4701C198.325 95.7497 195.268 94.2557 192.109 93.0014C183.839 89.8246 175.039 88.2389 166.175 88.3285C157.178 88.2253 148.255 89.9544 139.954 93.4095C132.26 96.6585 125.292 101.396 119.452 107.346C113.632 113.325 109.036 120.373 105.921 128.099C102.641 136.184 100.97 144.825 101.001 153.544C100.957 161.725 102.568 169.831 105.738 177.378C108.908 184.926 113.572 191.762 119.452 197.477C125.361 203.19 132.322 207.714 139.954 210.802C148.238 214.125 157.101 215.783 166.032 215.679C174.946 215.763 183.774 213.947 191.925 210.353C195.117 208.921 198.189 207.236 201.11 205.313V221.637C201.11 221.637 201.11 250.205 185.446 260.285C170.583 269.856 148.113 267.121 136.919 245.655L120.108 259.224C123.239 263.357 126.93 267.038 131.077 270.162C134.549 272.462 138.36 274.21 142.373 275.345C146.62 276.579 151.009 277.265 155.432 277.385C160.145 277.499 164.854 277.04 169.455 276.018C176.814 274.238 183.936 271.601 190.674 268.162C199.545 262.932 207.371 256.118 213.759 248.063V248.042ZM201.11 184.214C199.754 187.809 197.979 191.234 195.82 194.417C193 198.61 189.334 202.175 185.057 204.885C180.833 207.504 175.949 208.876 170.972 208.843C164.226 208.955 157.598 207.073 151.927 203.436C146.291 199.747 141.539 194.871 138.006 189.152C134.007 182.602 131.106 175.448 129.416 167.971C127.433 159.503 126.456 150.833 126.505 142.138C126.471 136.006 127.398 129.906 129.252 124.058C130.901 118.752 133.37 113.733 136.571 109.183C139.408 105.103 143.04 101.633 147.252 98.9802C151.063 96.5827 155.475 95.3026 159.984 95.2868C167.382 95.0827 174.696 96.8886 181.141 100.511C186.959 104.036 191.805 108.944 195.246 114.794C197.758 119.08 199.727 123.658 201.11 128.425V184.214Z" fill="#222120"/>
</g>
<defs>
<clipPath id="clip0_3_8">
<rect width="176" height="235" fill="white" transform="translate(101 42)"/>
</clipPath>
</defs>
</svg>
