<?xml version="1.0" encoding="UTF-8"?>
<svg width="16px" height="16px" viewBox="0 0 16 16" version="1.1" xmlns="http://www.w3.org/2000/svg" xmlns:xlink="http://www.w3.org/1999/xlink">
    <!-- Generator: Sketch 51.2 (57519) - http://www.bohemiancoding.com/sketch -->
    <title>linkedin</title>
    <desc>Created with Sketch.</desc>
    <defs></defs>
    <g id="Page-1" stroke="none" stroke-width="1" fill="none" fill-rule="evenodd">
        <g id="Desktop-HD" transform="translate(-1024.000000, -99.000000)" fill="#000000">
            <g id="linkedin" transform="translate(1024.000000, 99.000000)">
                <path d="M4,1.96406174 C4,2.98749924 3.21875,3.79999924 1.984375,3.79999924 L1.9609375,3.79999924 C0.78125,3.79999924 0,2.98749924 0,1.96406174 C0,0.932811737 0.796875,0.135936737 2.015625,0.135936737 C3.21875,0.135936737 3.984375,0.932811737 4,1.96406174 Z" id="Path"></path>
                <polygon id="Path" points="0.3359375 5.46406174 3.6640625 5.46406174 3.6640625 15.7999992 0.3359375 15.7999992"></polygon>
                <path d="M9,9.79999924 L9,15.7999992 L5.6640625,15.7999992 L5.6640625,7.79999924 C5.6640625,7.79999924 5.609375,5.81562424 5.609375,5.46406174 L8.890625,5.46406174 L9,6.89374924 C9.6640625,5.89374924 10.6640625,5.13593674 12,5.13593674 C14.3359375,5.13593674 16,6.79999924 16,9.79999924 L16,15.7999992 L12.6640625,15.7999992 L12.6640625,10.1359367 C12.6640625,8.46406174 11.8515625,7.79999924 10.8515625,7.79999924 C9.8515625,7.79999924 9,8.46406174 9,9.79999924 Z" id="Path"></path>
            </g>
        </g>
    </g>
</svg>