<?xml version="1.0" encoding="UTF-8"?>
<svg width="114px" height="128px" viewBox="0 0 114 128" version="1.1" xmlns="http://www.w3.org/2000/svg" xmlns:xlink="http://www.w3.org/1999/xlink">
    <!-- Generator: Sketch 49.3 (51167) - http://www.bohemiancoding.com/sketch -->
    <title>logo_icon_colored_bg</title>
    <desc>Created with Sketch.</desc>
    <defs></defs>
    <g id="Page-1" stroke="none" stroke-width="1" fill="none" fill-rule="evenodd">
        <g id="logo_icon_colored_bg">
            <path d="M100.1621,107.2409 C85.2121,120.4139 57.6891,114.3409 45.6621,96.2709 C33.6371,78.1989 38.5301,53.8039 56.5911,41.7669 L56.5831,41.7559 C56.9141,41.5519 57.2401,41.3459 57.5601,41.1349 C65.5341,35.8479 69.8161,26.8769 65.7111,18.1809 C61.6031,9.4839 51.2231,5.7639 42.5271,9.8709 C33.8321,13.9789 30.1141,24.3569 34.2201,33.0509 C35.4381,35.6319 37.2121,37.7699 39.3281,39.4009 C23.6011,56.8449 21.0221,83.3479 34.6331,103.8009 C50.7421,128.0079 83.4251,134.5719 107.6301,118.4629 L100.1621,107.2409 Z" id="Fill-14" fill="#FBEEE6"></path>
            <path d="M65.71,18.1804 C69.818,26.8774 65.533,35.8484 57.559,41.1344 C57.239,41.3454 56.914,41.5524 56.583,41.7554 L56.59,41.7664 C56.598,41.7614 56.607,41.7534 56.615,41.7484 L100.186,107.2224 C100.175,107.2314 100.163,107.2404 100.152,107.2484 C100.156,107.2464 100.16,107.2424 100.161,107.2404 L100.178,107.2654 C109.153,96.8364 114.416,83.1634 113.938,68.3284 C113.001,39.3554 90.573,16.1584 62.454,13.5014 C63.754,14.8404 64.869,16.3994 65.71,18.1804" id="Fill-15" fill="#FFFFFF"></path>
            <path d="M39.3281,39.4002 C37.2121,37.7692 35.4391,35.6332 34.2201,33.0532 C31.8651,28.0692 32.0931,22.5392 34.3441,17.9462 C13.5711,26.9802 -0.6509,47.9862 0.1241,72.0032 C0.5921,86.5312 6.4791,99.5952 15.7641,109.3602 C15.7641,109.3622 15.7621,109.3642 15.7601,109.3642 C15.8641,109.4742 15.9771,109.5762 16.0841,109.6852 C16.5071,110.1252 16.9321,110.5672 17.3701,110.9942 C17.3761,110.9902 17.3841,110.9882 17.3891,110.9852 C18.2131,111.7862 19.0591,112.5632 19.9261,113.3192 C23.3621,108.4292 28.4761,104.8552 34.3611,103.3732 C21.0661,82.9792 23.7081,56.7232 39.3281,39.4002" id="Fill-16" fill="#FFFFFF"></path>
            <path d="M51.6191,0.5825 C37.7841,-0.5595 25.6421,9.7285 24.5011,23.5635 C23.7611,32.4935 27.7921,40.7095 34.4571,45.7275 C35.9071,43.5165 37.5281,41.3965 39.3281,39.4005 C37.2131,37.7705 35.4371,35.6315 34.2201,33.0515 C30.1131,24.3565 33.8331,13.9795 42.5271,9.8715 C51.0831,5.8315 61.2541,9.3765 65.4911,17.7745 L72.3331,15.0495 C68.6471,7.1315 60.9461,1.3515 51.6191,0.5825" id="Fill-17" fill="#EF3935"></path>
            <path d="M34.3618,103.373 C28.4658,104.859 23.3428,108.442 19.9068,113.343 C21.9488,115.045 24.1158,116.6 26.3858,118.005 C28.0538,115.681 30.3088,113.728 33.0768,112.419 C35.3738,111.332 37.7868,110.806 40.1728,110.759 C38.1688,108.63 36.3068,106.316 34.6348,103.802 C34.5388,103.659 34.4538,103.514 34.3618,103.373" id="Fill-18" fill="#0D6936"></path>
            <path d="M56.6149,41.7485 C38.5349,53.7795 33.6299,78.1895 45.6629,96.2715 C57.6949,114.3505 85.2399,120.4215 100.1859,107.2225 L56.6149,41.7485 Z" id="Fill-19" fill="#0D6936"></path>
            <path d="M58.7766,26.1432 C60.9016,25.1392 61.8106,22.6022 60.8056,20.4762 C59.8036,18.3512 57.2666,17.4432 55.1396,18.4452 C53.0156,19.4492 52.1056,21.9872 53.1076,24.1122 C54.1146,26.2372 56.6496,27.1472 58.7766,26.1432" id="Fill-20" fill="#0D6936"></path>
            <path d="M66.6099,29.6174 L92.8139,11.6974 C93.3479,11.3014 93.0189,10.4544 92.3569,10.5224 L72.3349,15.0494 L72.3329,15.0494 L65.4909,17.7744 C65.5609,17.9114 65.6409,18.0394 65.7089,18.1804 C67.5389,22.0554 67.6949,25.9824 66.6099,29.6174" id="Fill-21" fill="#0D6936"></path>
        </g>
    </g>
</svg>