<?xml version="1.0" encoding="UTF-8"?>
<svg width="104px" height="20px" viewBox="0 0 104 20" version="1.1" xmlns="http://www.w3.org/2000/svg" xmlns:xlink="http://www.w3.org/1999/xlink">
    <!-- Generator: Sketch 50.2 (55047) - http://www.bohemiancoding.com/sketch -->
    <title>Architizer</title>
    <desc>Created with Sketch.</desc>
    <defs></defs>
    <g id="Page-1" stroke="none" stroke-width="1" fill="none" fill-rule="evenodd" fill-opacity="0.84">
        <g id="Logo" fill="#FFFFFF">
            <path d="M45.6118999,5.81473969 C47.4059139,5.81473969 48.6725228,6.39620784 49.4117647,7.5591616 C49.9797189,8.38855497 50.2636917,9.59656633 50.2636917,11.1832319 L50.2636917,19.6619337 L47.9107505,19.6619337 L47.9107505,11.7917512 C47.9107505,10.3763734 47.6583302,9.37345348 47.1534821,8.78296146 C46.6486339,8.19246944 45.8778506,7.89722786 44.8411089,7.89722786 C43.7412611,7.89722786 42.8645514,8.27811204 42.2109533,9.03989182 C41.5573553,9.8016716 41.2305612,10.7369789 41.2305612,11.8458418 L41.2305612,19.6619337 L38.87762,19.6619337 L38.87762,0.324543611 L41.2305612,0.324543611 L41.2305612,8.14063556 C41.6272276,7.45548452 42.1906657,6.89655389 42.9208925,6.46382691 C43.6511193,6.03109993 44.5481128,5.81473969 45.6118999,5.81473969 L45.6118999,5.81473969 Z M59.2697769,1.82555781 L61.6497634,1.82555781 L61.6497634,6.12576065 L64.6112238,6.12576065 L64.6112238,8.08654496 L61.6497634,8.08654496 L61.6497634,19.6619337 L59.2697769,19.6619337 L59.2697769,8.08654496 L56.6599053,8.08654496 L56.6599053,6.12576065 L59.2697769,6.12576065 L59.2697769,1.82555781 Z M31.7376606,18.025693 C33.6398563,18.025693 34.9425252,17.2143421 35.6457066,15.591616 L37.4983097,16.5382015 C36.9393707,17.6650947 36.1685873,18.5237744 35.1859364,19.1142664 C34.2032856,19.7047584 33.0538718,20 31.7376606,20 C29.7362983,20 28.1609253,19.3666955 27.0114943,18.1000676 C25.8620632,16.8334397 25.2873563,15.118334 25.2873563,12.9546991 C25.2873563,10.7910642 25.882347,9.06018229 27.0723462,7.76200135 C28.2623454,6.46382042 29.8174346,5.81473969 31.7376606,5.81473969 C33.1169778,5.81473969 34.2866754,6.1325188 35.2467884,6.76808654 C36.2069014,7.40365429 36.9213409,8.30290156 37.3901285,9.46585531 L35.4158215,10.4935767 C34.7487007,8.68153252 33.5226594,7.775524 31.7376606,7.775524 C30.5116008,7.775524 29.535726,8.23303577 28.8100068,9.14807302 C28.0842876,10.0631103 27.7214334,11.3229579 27.7214334,12.9276538 C27.7214334,14.5143194 28.0933026,15.7606446 28.8370521,16.6666667 C29.5808016,17.5726888 30.5476614,18.025693 31.7376606,18.025693 L31.7376606,18.025693 Z M81.3657877,6.12576065 L81.3657877,7.95131846 L73.5496957,17.7011494 L81.4469236,17.7011494 L81.4469236,19.6619337 L70.7910751,19.6619337 L70.7910751,17.7822853 L78.4043272,8.08654496 L71.142664,8.08654496 L71.142664,6.12576065 L81.3657877,6.12576065 Z M88.5057471,5.81473969 C89.8219584,5.81473969 90.9465809,6.13026504 91.8796484,6.76132522 C92.812716,7.3923854 93.5001105,8.23528884 93.9418526,9.29006085 C94.3835947,10.3448329 94.6044625,11.5573517 94.6044625,12.9276538 L94.6044625,13.4279919 L84.4895199,13.4279919 C84.5075502,14.0049612 84.6022078,14.5548768 84.7734956,15.0777552 C84.9447834,15.6006337 85.1972037,16.080683 85.530764,16.5179175 C85.8643244,16.9551521 86.3105674,17.30223 86.8695064,17.5591616 C87.4284454,17.8160932 88.0685112,17.9445571 88.7897228,17.9445571 C90.5206307,17.9445571 91.8683747,17.1782813 92.8329953,15.6457066 L94.5233266,16.8627451 C94.3880994,17.0700934 94.2348442,17.2819462 94.0635565,17.4983097 C93.8922687,17.7146732 93.6263259,17.9828697 93.2657201,18.3029074 C92.9051143,18.622945 92.5174688,18.9001566 92.1027721,19.1345504 C91.6880755,19.3689442 91.1652049,19.5717819 90.5341447,19.7430696 C89.9030845,19.9143574 89.2359738,20 88.5327924,20 C86.5765059,20 85.0124016,19.3644418 83.8404327,18.0933063 C82.6684638,16.8221708 82.0824882,15.0732588 82.0824882,12.8465179 C82.0824882,10.7820496 82.6864938,9.09398898 83.8945233,7.78228533 C85.1025528,6.47058168 86.639612,5.81473969 88.5057471,5.81473969 L88.5057471,5.81473969 Z M84.5841785,11.5483435 L92.1703854,11.5483435 C92.0712188,10.3493291 91.7016034,9.41176809 91.0615281,8.73563218 C90.4214527,8.05949628 89.5695343,7.7214334 88.5057471,7.7214334 C87.4509751,7.7214334 86.5629966,8.06851129 85.841785,8.76267748 C85.1205734,9.45684368 84.7013754,10.3853897 84.5841785,11.5483435 L84.5841785,11.5483435 Z M102.90737,5.78769439 C103.24093,5.78769439 103.502366,5.81473942 103.691684,5.86883029 L103.691684,8.11359026 C103.421229,8.05949939 103.123734,8.03245436 102.799189,8.03245436 C101.591159,8.03245436 100.624299,8.48771237 99.8985801,9.39824206 C99.1728609,10.3087717 98.8100068,11.3680354 98.8100068,12.5760649 L98.8100068,19.6619337 L96.4570656,19.6619337 L96.4570656,6.12576065 L98.8100068,6.12576065 L98.8100068,8.69506423 C98.9812945,7.91074659 99.4748663,7.23011332 100.290737,6.65314402 C101.106608,6.07617471 101.97881,5.78769439 102.90737,5.78769439 L102.90737,5.78769439 Z M54.7532116,19.6619337 L52.4002705,19.6619337 L52.4002705,6.12576065 L54.7532116,6.12576065 L54.7532116,19.6619337 Z M53.5632184,0 C54.0049605,0 54.3880984,0.162270183 54.7126437,0.486815416 C55.0371889,0.811360649 55.1994591,1.19449858 55.1994591,1.6362407 C55.1994591,2.07798283 55.0394427,2.45661325 54.719405,2.77214334 C54.3993673,3.08767343 54.0139757,3.24543611 53.5632184,3.24543611 C53.1214763,3.24543611 52.7428458,3.08767343 52.4273158,2.77214334 C52.1117857,2.45661325 51.954023,2.07798283 51.954023,1.6362407 C51.954023,1.18548343 52.1117857,0.800091751 52.4273158,0.480054091 C52.7428458,0.16001643 53.1214763,0 53.5632184,0 L53.5632184,0 Z M20.3786342,6.12576065 L20.3786342,8.69506423 C20.5318917,7.91074659 21.0164485,7.23011332 21.8323191,6.65314402 C22.6481898,6.07617471 23.529407,5.78769439 24.4759973,5.78769439 C24.7915274,5.78769439 25.0439477,5.81473942 25.2332657,5.86883029 L25.2332657,8.11359026 C24.9628114,8.05949939 24.665316,8.03245436 24.3407708,8.03245436 C23.5294077,8.03245436 22.8149682,8.25557586 22.1974307,8.70182556 C21.5798932,9.14807525 21.1223815,9.71151339 20.8248817,10.3921569 C20.5273819,11.0728003 20.3786342,11.8007624 20.3786342,12.5760649 L20.3786342,19.6619337 L17.9986477,19.6619337 L17.9986477,6.12576065 L20.3786342,6.12576065 Z M0,19.6619337 L6.92359703,0.324543611 L9.69574037,0.324543611 L16.5111562,19.6619337 L13.7931034,19.6619337 L8.22177147,3.27248141 L8.19472617,3.27248141 L3.38066261,17.3901285 L10.2231237,17.3901285 L10.2231237,19.6619337 L0,19.6619337 Z M68.897904,19.6619337 L66.5179175,19.6619337 L66.5179175,6.12576065 L68.897904,6.12576065 L68.897904,19.6619337 Z M67.7079108,0 C68.1496529,0 68.5327908,0.162270183 68.857336,0.486815416 C69.1818813,0.811360649 69.3441515,1.19449858 69.3441515,1.6362407 C69.3441515,2.07798283 69.184135,2.45661325 68.8640974,2.77214334 C68.5440597,3.08767343 68.158668,3.24543611 67.7079108,3.24543611 C67.2661686,3.24543611 66.889792,3.08992718 66.5787694,2.77890467 C66.2677469,2.46788215 66.112238,2.08699797 66.112238,1.6362407 C66.112238,1.18548343 66.2677469,0.800091751 66.5787694,0.480054091 C66.889792,0.16001643 67.2661686,0 67.7079108,0 L67.7079108,0 Z" id="Architizer"></path>
        </g>
    </g>
</svg>