<?xml version="1.0" encoding="UTF-8"?>
<svg width="198px" height="49px" viewBox="0 0 198 49" version="1.1" xmlns="http://www.w3.org/2000/svg" xmlns:xlink="http://www.w3.org/1999/xlink">
    <!-- Generator: Sketch 51 (57462) - http://www.bohemiancoding.com/sketch -->
    <title>cs</title>
    <desc>Created with Sketch.</desc>
    <defs></defs>
    <g id="Page-1" stroke="none" stroke-width="1" fill="none" fill-rule="evenodd">
        <g id="cs" fill="#FFFFFF" fill-rule="nonzero">
            <path d="M94.80625,19.9925 C94.4714169,19.5610778 94.0374847,19.216762 93.54125,18.98875 C93.0436826,18.7633415 92.4981919,18.6641614 91.953125,18.7 L90.53,18.7 L90.53,29.755 L92.00125,29.755 C92.5404977,29.7820306 93.078284,29.6782473 93.56875,29.4525 C94.056292,29.2259689 94.4811079,28.8837561 94.80625,28.455625 C95.5353439,27.3073072 95.8774732,25.9556553 95.7825,24.59875 L95.7825,23.82875 C95.8773995,22.4783512 95.5351029,21.13327 94.80625,19.9925 Z" id="Shape"></path>
            <polygon id="Shape" points="171.359375 26.455 175.1475 26.455 173.25 20.356875"></polygon>
            <path d="M80.141875,19.861875 C79.5817679,19.0149617 78.6341229,18.5055467 77.61875,18.5055467 C76.6033771,18.5055467 75.6557321,19.0149617 75.095625,19.861875 C74.4583111,21.0876305 74.1660243,22.4635172 74.25,23.8425 L74.25,24.578125 C74.1755333,25.9603654 74.4798033,27.3367116 75.13,28.55875 C75.6582065,29.4558959 76.6408253,29.9856095 77.680625,29.93375 C78.1813311,29.9544774 78.6781829,29.8379906 79.1175,29.596875 C79.5584526,29.3562051 79.9229242,28.9964979 80.169375,28.55875 C80.8235697,27.338386 81.1258518,25.9602652 81.0425,24.578125 L81.0425,23.8425 C81.1200104,22.4575475 80.8080149,21.078575 80.141875,19.861875 Z" id="Shape"></path>
            <path d="M195.31875,12.821875 C193.592139,11.0589001 191.241015,10.0463364 188.77375,10.003125 L60.823125,10.003125 C59.571445,9.99775438 58.3255889,10.1737489 57.124375,10.525625 L63.655625,0 L32.924375,4.44125 L31.99625,8.174375 L31.075,4.44125 L0,0 L9.96875,15.406875 L12.08625,15.709375 L17.263125,24.509375 L22.075625,24.935625 L31.9275,48.723125 L41.9375,24.935625 L48.475625,24.358125 C48.4422057,26.1921942 48.673761,28.0214809 49.163125,29.789375 C49.658754,31.4066758 50.4747395,32.907715 51.5625,34.203125 C52.6850316,35.5253937 54.0963284,36.5721055 55.6875,37.2625 C57.2918272,37.9428496 59.018679,38.286816 60.76125,38.273125 L188.77375,38.273125 C193.892846,38.2202833 198.011599,34.0493551 198,28.93 L198,19.421875 C198.007736,16.9551172 197.044615,14.5843574 195.31875,12.821875 Z M51.101875,11.06875 L40.60375,12.560625 L39.496875,16.23875 L46.481875,15.4825 L43.79375,20.0475 L38.190625,20.549375 L31.934375,39.875 L25.67125,20.549375 L20.075,20.0475 L17.38,15.4825 L24.371875,16.23875 L23.258125,12.560625 L12.76,11.06875 L9.17125,5.410625 L27.10125,8.696875 L31.91375,28.20125 L36.72625,8.696875 L54.6975,5.410625 L51.101875,11.06875 Z M59.420625,27.0875 C59.4987258,27.6587339 59.680455,28.2109108 59.956875,28.716875 C60.1783467,29.1116081 60.5138105,29.4302987 60.919375,29.63125 C61.3803499,29.8421838 61.8839508,29.9433746 62.390625,29.926875 C63.1954255,29.9873232 63.99339,29.7417957 64.625,29.239375 C64.9228566,28.9601043 65.1573032,28.6201568 65.3125,28.2425 C65.4568379,27.8678818 65.5246312,27.4681349 65.511875,27.066875 L69.733125,27.066875 C69.7060063,27.9366863 69.5049701,28.792259 69.141875,29.583125 C68.7919243,30.3307792 68.2909985,30.9979001 67.670625,31.5425 C67.0065403,32.1078726 66.2381041,32.5376363 65.40875,32.8075 C64.4575832,33.1219327 63.4611221,33.2775571 62.459375,33.268125 C61.3801137,33.2840761 60.308863,33.0805853 59.310625,32.67 C58.4092574,32.2912766 57.6071089,31.7102482 56.96625,30.971875 C56.2983637,30.186137 55.7998394,29.2710055 55.501875,28.28375 C55.1564819,27.1215903 54.9873093,25.9142077 55,24.701875 L55,23.74625 C54.9868551,22.5341252 55.1655211,21.32755 55.529375,20.17125 C55.8465702,19.1808941 56.3558599,18.2627709 57.028125,17.469375 C57.6717525,16.7353217 58.4700585,16.153028 59.365625,15.764375 C60.3293847,15.358531 61.3655456,15.1527022 62.41125,15.159375 C63.4447719,15.1451438 64.4729296,15.3103004 65.45,15.6475 C66.2774679,15.9307306 67.0396224,16.377269 67.69125,16.960625 C68.3016303,17.5252147 68.7905383,18.2082823 69.128125,18.968125 C69.4835145,19.7689829 69.6997384,20.6245785 69.7675,21.498125 L65.505,21.498125 C65.4997543,21.0582984 65.4349998,20.6212056 65.3125,20.19875 C65.2119626,19.8432491 65.0227024,19.5191409 64.7625,19.256875 C64.4956284,18.9895685 64.1676182,18.7913465 63.806875,18.679375 C63.3453999,18.542166 62.8649803,18.4795026 62.38375,18.49375 C61.9088958,18.4783754 61.4373065,18.5774091 61.00875,18.7825 C60.6060567,18.9875364 60.2716543,19.3052186 60.04625,19.696875 C59.7540405,20.1950285 59.5559531,20.7426819 59.461875,21.3125 C59.3244266,22.1046425 59.2622744,22.9080178 59.27625,23.711875 L59.27625,24.688125 C59.2548001,25.4905885 59.3031067,26.2933985 59.420625,27.0875 Z M85.339375,24.5575 C85.3600117,25.7885591 85.1693302,27.0140365 84.775625,28.180625 C84.4394122,29.1980987 83.8990011,30.1362148 83.1875,30.9375 C82.5275715,31.6797127 81.7133529,32.2686719 80.801875,32.663125 C79.8252414,33.0734631 78.7742161,33.2771139 77.715,33.26125 C76.6446541,33.2771208 75.5824026,33.0735616 74.59375,32.663125 C73.6744142,32.2720672 72.8527709,31.6828315 72.1875,30.9375 C71.4768034,30.1382395 70.9364346,29.2025358 70.599375,28.1875 C70.2002417,27.0220844 70.0071478,25.7960544 70.02875,24.564375 L70.02875,23.876875 C70.0087648,22.6481086 70.1994395,21.4250002 70.5925,20.260625 C70.9242859,19.2447156 71.4626506,18.3084291 72.17375,17.510625 C72.8494341,16.7613924 73.6798375,16.167912 74.6075,15.77125 C76.592868,14.9735413 78.809632,14.9735413 80.795,15.77125 C81.7065742,16.1752506 82.5220363,16.7681009 83.1875,17.510625 C83.8954218,18.3107169 84.4333884,19.246311 84.76875,20.260625 C85.1673672,21.4237953 85.3604578,22.6474783 85.339375,23.876875 L85.339375,24.5575 Z M100.134375,24.5575 C100.149383,25.7304695 99.946574,26.8960382 99.53625,27.995 C99.1551617,28.9855795 98.5801786,29.8901261 97.845,30.655625 C97.1149016,31.3973703 96.2427275,31.9842757 95.280625,32.38125 C94.2477081,32.7986762 93.1427888,33.0089146 92.02875,33 L86.315625,33 L86.315625,15.41375 L91.980625,15.41375 C93.1065608,15.4037553 94.2233722,15.61637 95.266875,16.039375 C96.2354305,16.4318183 97.1129687,17.0191839 97.845,17.765 C98.5792657,18.5285884 99.1541871,19.4307007 99.53625,20.41875 C99.9476602,21.517417 100.150505,22.6831911 100.134375,23.85625 L100.134375,24.5575 Z M113.196875,32.993125 L101.0625,32.993125 L101.0625,15.41375 L113.210625,15.41375 L113.210625,18.7 L105.304375,18.7 L105.304375,22.405625 L111.973125,22.405625 L111.973125,25.554375 L105.304375,25.554375 L105.304375,29.748125 L113.183125,29.748125 L113.196875,32.993125 Z M126.548125,30.42875 C126.238919,31.0449134 125.786218,31.5777805 125.228125,31.9825 C124.608897,32.4299226 123.908302,32.7521963 123.165625,32.93125 C122.29369,33.1642563 121.393672,33.2753125 120.49125,33.26125 C119.88781,33.2647132 119.285185,33.2164111 118.69,33.116875 C118.105753,33.0160759 117.532508,32.8595272 116.978125,32.649375 C116.444098,32.4425875 115.934549,32.1774377 115.45875,31.85875 C114.993699,31.5446236 114.580769,31.1595317 114.235,30.7175 C113.887644,30.2657591 113.618109,29.7592188 113.4375,29.21875 C113.230886,28.6148251 113.128591,27.9801334 113.135,27.341875 L117.390625,27.341875 C117.375962,27.7819415 117.445981,28.2207272 117.596875,28.634375 C117.722855,28.9672636 117.930973,29.2628867 118.201875,29.49375 C118.487959,29.7169365 118.818481,29.8763369 119.17125,29.96125 C119.607463,30.0529937 120.052396,30.0967953 120.498125,30.091875 C120.846477,30.1002271 121.194107,30.056194 121.529375,29.96125 C121.781154,29.8782916 122.01458,29.7475731 122.216875,29.57625 C122.396215,29.4299739 122.535732,29.2407977 122.6225,29.02625 C122.712344,28.8085416 122.754539,28.5741222 122.74625,28.33875 C122.750683,28.0868838 122.713516,27.8360127 122.63625,27.59625 C122.54166,27.3500385 122.385419,27.1322476 122.1825,26.96375 C121.893651,26.7276246 121.574585,26.5310986 121.23375,26.379375 C120.710724,26.1458677 120.176063,25.9393463 119.631875,25.760625 C118.878688,25.5125328 118.139663,25.2233492 117.418125,24.894375 C116.732091,24.59564 116.087408,24.2097546 115.5,23.74625 C114.954557,23.3223115 114.498848,22.7941559 114.159375,22.1925 C113.490279,20.898898 113.490279,19.361102 114.159375,18.0675 C114.49593,17.4534021 114.965764,16.9224886 115.534375,16.51375 C116.190466,16.0687425 116.915076,15.7343073 117.679375,15.52375 C118.559298,15.282402 119.468925,15.1666734 120.38125,15.18 C121.279036,15.164982 122.173204,15.2973653 123.028125,15.571875 C123.778237,15.8000151 124.478155,16.1686389 125.090625,16.658125 C125.674804,17.1373519 126.144573,17.7410048 126.465625,18.425 C126.789276,19.1079904 126.953819,19.8554871 126.946875,20.61125 L122.71875,20.61125 C122.72338,20.2998689 122.672153,19.9901793 122.5675,19.696875 C122.46985,19.434832 122.312081,19.1993553 122.106875,19.009375 C121.888045,18.80692 121.630913,18.6503034 121.350625,18.54875 C121.005746,18.4298997 120.642872,18.3717468 120.278125,18.376875 C119.918548,18.3777234 119.560515,18.4239213 119.2125,18.514375 C118.938124,18.6017043 118.680217,18.7341429 118.449375,18.90625 C118.245505,19.0626008 118.078803,19.2621737 117.96125,19.490625 C117.858757,19.7054208 117.804773,19.9401347 117.803125,20.178125 C117.80725,20.4250016 117.886377,20.6647826 118.03,20.865625 C118.204465,21.1045796 118.421153,21.3096183 118.669375,21.470625 C118.988396,21.6833671 119.329559,21.8608643 119.686875,22 C120.113125,22.165 120.56,22.33 121.061875,22.495 C121.917084,22.7628409 122.751247,23.0937487 123.5575,23.485 C124.255152,23.8071168 124.899635,24.2336812 125.46875,24.75 C126.479674,25.6594858 127.042302,26.9655858 127.00875,28.325 C127.025561,29.0596062 126.867689,29.7877043 126.548125,30.449375 L126.548125,30.42875 Z M132.460625,32.993125 L128.2325,32.993125 L128.2325,15.41375 L132.460625,15.41375 L132.460625,32.993125 Z M148.5825,30.806875 C148.299975,31.1164091 147.981466,31.3910654 147.63375,31.625 C147.174029,31.9420553 146.680604,32.2072137 146.1625,32.415625 C145.512906,32.6823507 144.838018,32.8827439 144.148125,33.01375 C143.304288,33.1840805 142.444476,33.2624548 141.58375,33.2475 C140.493517,33.2654184 139.410164,33.071629 138.39375,32.676875 C137.467483,32.3187372 136.633434,31.7572224 135.953125,31.03375 C135.24746,30.2578673 134.71334,29.3418982 134.385625,28.345625 C134.000736,27.1701264 133.814846,25.9386065 133.835625,24.701875 L133.835625,23.7325 C133.814203,22.4929385 134.002481,21.2586743 134.3925,20.081875 C134.723914,19.0902559 135.252421,18.1758913 135.94625,17.39375 C136.602284,16.6701956 137.41301,16.1038622 138.318125,15.736875 C139.27855,15.3469147 140.306588,15.150653 141.343125,15.159375 C142.403093,15.1389347 143.459404,15.2898363 144.47125,15.60625 C145.274342,15.8614794 146.014605,16.2831482 146.64375,16.84375 C147.224134,17.3717106 147.679733,18.0222303 147.9775,18.748125 C148.290158,19.5173154 148.489324,20.3278762 148.56875,21.154375 L144.485,21.154375 C144.427108,20.7600986 144.328025,20.3729811 144.189375,19.999375 C144.062422,19.6789016 143.873142,19.3868033 143.6325,19.14 C143.377657,18.9011589 143.075518,18.7184701 142.745625,18.60375 C142.338,18.4795396 141.91359,18.4192409 141.4875,18.425 C141.009346,18.4232364 140.53777,18.5364145 140.1125,18.755 C139.683049,18.9866379 139.320719,19.3252866 139.060625,19.738125 C138.737768,20.2442308 138.505153,20.8025071 138.373125,21.388125 C138.206319,22.1488497 138.127883,22.9262868 138.139375,23.705 L138.139375,24.701875 C138.04933,26.0960469 138.379841,27.4851505 139.088125,28.689375 C139.406869,29.1365504 139.83543,29.4940791 140.3325,29.7275 C140.828519,29.9574469 141.37577,30.0545781 141.920625,30.009375 C142.224372,30.0161486 142.528109,29.9954393 142.828125,29.9475 C143.062771,29.9114378 143.293129,29.8515447 143.515625,29.76875 C143.830991,29.6599792 144.122676,29.4919684 144.375,29.27375 L144.375,26.52375 L141.39125,26.52375 L141.39125,23.60875 L148.5825,23.60875 L148.5825,30.806875 Z M164.505,33 L160.28375,33 L154.048125,22.048125 L154.048125,33 L149.80625,33 L149.80625,15.41375 L154.048125,15.41375 L160.27,26.365625 L160.27,15.41375 L164.505,15.41375 L164.505,33 Z M177.189375,33 L176.158125,29.71375 L170.34875,29.71375 L169.33125,33 L164.800625,33 L171.25625,15.4 L175.24375,15.4 L181.740625,33 L177.189375,33 Z M193.414375,33 L181.78875,33 L181.78875,15.41375 L186.030625,15.41375 L186.030625,29.748125 L193.414375,29.748125 L193.414375,33 Z" id="Shape"></path>
        </g>
    </g>
</svg>