<?xml version="1.0" encoding="UTF-8"?>
<svg width="110px" height="54px" viewBox="0 0 110 54" version="1.1" xmlns="http://www.w3.org/2000/svg" xmlns:xlink="http://www.w3.org/1999/xlink">
    <!-- Generator: Sketch 50.2 (55047) - http://www.bohemiancoding.com/sketch -->
    <title>Group</title>
    <desc>Created with Sketch.</desc>
    <defs></defs>
    <g id="Page-1" stroke="none" stroke-width="1" fill="none" fill-rule="evenodd">
        <g id="LogoLockups" transform="translate(-17.000000, -42.000000)" fill="#1C1B19">
            <g id="Group" transform="translate(17.000000, 42.000000)">
                <path d="M6.0666,48.2601 L6.3776,48.2601 C6.0496,49.3851 5.2286,49.9481 3.9146,49.9481 C3.0696,49.9481 2.3576,49.6601 1.7816,49.0851 C1.2036,48.5111 0.9156,47.7501 0.9156,46.8041 C0.9156,45.8341 1.2266,45.0471 1.8496,44.4431 C2.4726,43.8391 3.2086,43.5381 4.0586,43.5381 C4.5696,43.5381 5.0406,43.6491 5.4706,43.8741 C5.9006,44.0991 6.1156,44.3731 6.1156,44.6961 C6.1156,44.8171 6.0756,44.9301 5.9956,45.0371 C5.9166,45.1431 5.8016,45.1961 5.6526,45.1961 C5.3326,45.1961 5.1376,45.0101 5.0656,44.6381 C5.0066,44.3581 4.9176,44.1631 4.7976,44.0521 C4.6716,43.9411 4.4276,43.8861 4.0656,43.8861 C3.4186,43.8861 2.9326,44.1091 2.6056,44.5591 C2.2806,45.0081 2.1166,45.6841 2.1166,46.5861 C2.1166,47.5181 2.2936,48.2481 2.6436,48.7741 C2.9946,49.3011 3.5246,49.5641 4.2366,49.5641 C5.1956,49.5641 5.8056,49.1301 6.0666,48.2601" id="Fill-1"></path>
                <path d="M11.0526,44.7546 C11.3426,44.3486 11.6666,44.0446 12.0276,43.8416 C12.3866,43.6386 12.7816,43.5376 13.2106,43.5376 C13.6986,43.5376 14.1036,43.6386 14.4236,43.8416 C14.7456,44.0446 14.9536,44.2946 15.0506,44.5916 C15.1476,44.8886 15.1956,45.3706 15.1956,46.0356 L15.1956,47.6726 C15.1956,48.3686 15.2086,48.7906 15.2356,48.9396 C15.2626,49.0906 15.3406,49.2006 15.4706,49.2696 C15.6006,49.3406 15.8416,49.3746 16.1956,49.3746 L16.1956,49.7086 L13.1316,49.7086 L13.1316,49.3746 L13.2696,49.3746 C13.6206,49.3746 13.8496,49.3246 13.9536,49.2236 C14.0566,49.1216 14.1176,49.0026 14.1346,48.8646 C14.1516,48.7276 14.1596,48.3296 14.1596,47.6726 L14.1596,45.8916 C14.1596,45.3996 14.1306,45.0346 14.0736,44.7976 C14.0156,44.5616 13.8786,44.3646 13.6646,44.2106 C13.4486,44.0566 13.1796,43.9796 12.8566,43.9796 C12.4796,43.9796 12.1416,44.0896 11.8416,44.3086 C11.5426,44.5286 11.2796,44.8576 11.0526,45.2976 L11.0526,47.6726 C11.0526,48.3396 11.0636,48.7506 11.0856,48.9046 C11.1066,49.0596 11.1816,49.1766 11.3066,49.2546 C11.4316,49.3366 11.6616,49.3746 11.9946,49.3746 L11.9946,49.7086 L8.9816,49.7086 L8.9816,49.3746 L9.1336,49.3746 C9.4816,49.3746 9.7066,49.3256 9.8106,49.2266 C9.9146,49.1286 9.9756,49.0096 9.9916,48.8726 C10.0096,48.7336 10.0176,48.3356 10.0176,47.6726 L10.0176,41.7626 C10.0176,41.1646 9.9606,40.7856 9.8466,40.6266 C9.7336,40.4666 9.4616,40.3876 9.0326,40.3876 L9.0326,40.0546 C9.7806,40.0546 10.4036,39.9526 10.9006,39.7496 L11.0526,39.7496 L11.0526,44.7546 Z" id="Fill-3"></path>
                <path d="M23.0302,46.0867 L22.2382,46.4057 C20.9892,46.9127 20.3642,47.5497 20.3642,48.3177 C20.3642,48.6217 20.4442,48.8677 20.6042,49.0527 C20.7642,49.2387 20.9722,49.3317 21.2292,49.3317 C21.4562,49.3317 21.7202,49.2577 22.0212,49.1077 C22.3202,48.9577 22.6572,48.7327 23.0302,48.4337 L23.0302,46.0867 Z M25.1262,48.6217 L25.3912,48.6217 C25.3482,49.4467 24.9432,49.8607 24.1772,49.8607 C23.8502,49.8607 23.5922,49.7737 23.4022,49.6007 C23.2112,49.4267 23.0872,49.1677 23.0302,48.8247 C22.5462,49.1677 22.1042,49.4267 21.7062,49.6007 C21.3072,49.7737 20.9492,49.8607 20.6352,49.8607 C20.2342,49.8607 19.8882,49.7447 19.5972,49.5137 C19.3072,49.2807 19.1622,48.9747 19.1622,48.5927 C19.1622,48.0957 19.4052,47.6607 19.8912,47.2897 C20.3772,46.9167 21.0492,46.5557 21.9052,46.2027 L23.0302,45.7467 L23.0302,45.4567 C23.0302,45.0467 23.0032,44.7497 22.9502,44.5657 C22.8972,44.3827 22.7592,44.2177 22.5352,44.0737 C22.3142,43.9297 22.0202,43.8557 21.6572,43.8557 C20.9302,43.8557 20.5272,44.0987 20.4442,44.5807 C20.3662,45.0727 20.1632,45.3197 19.8362,45.3197 C19.5412,45.3197 19.3952,45.1797 19.3952,44.8997 C19.3952,44.6237 19.5892,44.3287 19.9802,44.0117 C20.3712,43.6957 20.9802,43.5377 21.8052,43.5377 C22.4182,43.5377 22.8942,43.6347 23.2332,43.8277 C23.5712,44.0197 23.7942,44.2407 23.9022,44.4867 C24.0112,44.7327 24.0652,45.1087 24.0652,45.6157 L24.0652,48.0137 C24.0652,48.5737 24.0942,48.9337 24.1532,49.0937 C24.2112,49.2527 24.3362,49.3317 24.5312,49.3317 C24.8502,49.3317 25.0492,49.0947 25.1262,48.6217 Z" id="Fill-5"></path>
                <path d="M30.0825,45.051 C30.2465,44.622 30.5125,44.262 30.8825,43.972 C31.2515,43.682 31.6125,43.538 31.9655,43.538 C32.2845,43.538 32.5355,43.637 32.7185,43.834 C32.9025,44.032 32.9935,44.235 32.9935,44.443 C32.9935,44.583 32.9465,44.703 32.8525,44.805 C32.7585,44.907 32.6425,44.957 32.5085,44.957 C32.2665,44.957 32.0835,44.778 31.9575,44.422 C31.8705,44.179 31.7405,44.059 31.5665,44.059 C31.3595,44.059 31.1105,44.2 30.8215,44.483 C30.5315,44.765 30.3455,45.059 30.2635,45.363 C30.1805,45.667 30.1405,46.085 30.1405,46.616 L30.1405,47.673 C30.1405,48.306 30.1485,48.704 30.1655,48.868 C30.1825,49.032 30.2515,49.158 30.3725,49.245 C30.4945,49.332 30.7105,49.375 31.0225,49.375 L31.2265,49.375 L31.2265,49.708 L28.0755,49.708 L28.0755,49.375 L28.2285,49.375 C28.5175,49.375 28.7245,49.336 28.8475,49.255 C28.9705,49.176 29.0445,49.064 29.0685,48.92 C29.0925,48.774 29.1045,48.359 29.1045,47.673 L29.1045,46 C29.1045,45.363 29.0965,44.963 29.0785,44.802 C29.0625,44.639 28.9925,44.514 28.8725,44.425 C28.7515,44.335 28.5375,44.291 28.2285,44.291 L28.0755,44.291 L28.0755,43.965 C28.5275,43.912 29.1195,43.769 29.8505,43.538 C29.9905,43.919 30.0685,44.424 30.0825,45.051" id="Fill-7"></path>
                <path d="M36.0988,40.5103 C36.0988,40.3033 36.1718,40.1243 36.3198,39.9743 C36.4668,39.8253 36.6438,39.7503 36.8518,39.7503 C37.0588,39.7503 37.2358,39.8253 37.3808,39.9743 C37.5248,40.1243 37.5978,40.3033 37.5978,40.5103 C37.5978,40.7233 37.5248,40.9033 37.3808,41.0543 C37.2358,41.2023 37.0588,41.2783 36.8518,41.2783 C36.6438,41.2783 36.4668,41.2023 36.3198,41.0543 C36.1718,40.9033 36.0988,40.7233 36.0988,40.5103 Z M37.4958,43.5373 L37.4958,47.6733 C37.4958,48.3053 37.5058,48.7043 37.5248,48.8683 C37.5448,49.0323 37.6148,49.1583 37.7348,49.2453 C37.8568,49.3313 38.0708,49.3753 38.3798,49.3753 L38.5318,49.3753 L38.5318,49.7083 L35.3378,49.7083 L35.3378,49.3753 L35.5838,49.3753 C35.9268,49.3753 36.1508,49.3263 36.2538,49.2263 C36.3578,49.1283 36.4178,49.0093 36.4358,48.8723 C36.4518,48.7333 36.4608,48.3353 36.4608,47.6733 L36.4608,45.8773 C36.4608,45.1823 36.4278,44.7563 36.3628,44.6023 C36.2978,44.4483 36.2108,44.3503 36.1028,44.3123 C35.9938,44.2743 35.8048,44.2543 35.5338,44.2543 L35.3378,44.2543 L35.3378,43.9223 C36.1968,43.8343 36.8638,43.7063 37.3368,43.5373 L37.4958,43.5373 Z" id="Fill-9"></path>
                <path d="M44.9615,44.1023 L43.1725,44.1023 L43.1725,47.6873 C43.1725,48.2383 43.1965,48.6083 43.2455,48.7993 C43.2935,48.9893 43.3965,49.1443 43.5525,49.2593 C43.7105,49.3753 43.8775,49.4333 44.0555,49.4333 C44.4045,49.4333 44.7055,49.2353 44.9615,48.8393 L45.1935,48.9783 C45.0435,49.2953 44.8225,49.5353 44.5305,49.6973 C44.2375,49.8583 43.9425,49.9403 43.6435,49.9403 C43.2955,49.9403 42.9905,49.8373 42.7265,49.6323 C42.4645,49.4273 42.2995,49.1873 42.2345,48.9113 C42.1695,48.6363 42.1365,48.1533 42.1365,47.4623 L42.1365,44.1023 L41.2785,44.1023 L41.2785,43.7733 C41.6735,43.7643 42.0275,43.5973 42.3405,43.2733 C42.6545,42.9503 42.8545,42.4963 42.9405,41.9113 L43.1725,41.9113 L43.1725,43.7693 L44.9615,43.7693 L44.9615,44.1023 Z" id="Fill-11"></path>
                <path d="M51.1344,48.5858 L52.5174,45.2918 C52.7154,44.8088 52.8134,44.5398 52.8134,44.4868 C52.8134,44.2458 52.5444,44.1198 52.0064,44.1098 L52.0064,43.7768 L54.0924,43.7768 L54.0924,44.1098 C53.7694,44.1238 53.5324,44.2088 53.3824,44.3668 C53.2324,44.5238 53.0474,44.8708 52.8244,45.4068 L50.1744,51.7848 C49.9244,52.3938 49.7014,52.8088 49.5094,53.0288 C49.3154,53.2478 49.1024,53.3588 48.8704,53.3588 C48.5564,53.3588 48.4004,53.2158 48.4004,52.9298 C48.4004,52.6008 48.6504,52.3228 49.1514,52.0958 C49.4454,51.9638 49.6414,51.8528 49.7404,51.7608 C49.8394,51.6698 49.9384,51.5018 50.0334,51.2618 L50.6014,49.8528 L48.3774,45.0728 C48.1804,44.6528 48.0154,44.3878 47.8854,44.2768 C47.7554,44.1648 47.5334,44.1098 47.2194,44.1098 L47.2194,43.7768 L49.9424,43.7768 L49.9424,44.1098 C49.4644,44.1238 49.2264,44.2238 49.2264,44.4068 C49.2264,44.4798 49.3194,44.7158 49.5084,45.1168 L51.1344,48.5858 Z" id="Fill-13"></path>
                <path d="M57.2618,49.1654 C57.2618,48.9534 57.3378,48.7704 57.4908,48.6184 C57.6428,48.4664 57.8248,48.3904 58.0368,48.3904 C58.2548,48.3904 58.4398,48.4664 58.5908,48.6184 C58.7438,48.7704 58.8198,48.9534 58.8198,49.1654 C58.8198,49.3824 58.7428,49.5674 58.5878,49.7184 C58.4338,49.8714 58.2498,49.9484 58.0368,49.9484 C57.8198,49.9484 57.6368,49.8684 57.4868,49.7124 C57.3378,49.5554 57.2618,49.3734 57.2618,49.1654 M57.2618,44.1454 C57.2618,43.9384 57.3358,43.7554 57.4838,43.5994 C57.6308,43.4424 57.8158,43.3634 58.0368,43.3634 C58.2548,43.3634 58.4398,43.4404 58.5908,43.5914 C58.7438,43.7444 58.8198,43.9294 58.8198,44.1454 C58.8198,44.3574 58.7428,44.5414 58.5878,44.6934 C58.4338,44.8444 58.2498,44.9214 58.0368,44.9214 C57.8198,44.9214 57.6368,44.8434 57.4868,44.6884 C57.3378,44.5344 57.2618,44.3534 57.2618,44.1454" id="Fill-15"></path>
                <path d="M74.8659,49.948 L74.5349,49.948 L72.7679,45.24 L70.9599,49.948 L70.6559,49.948 L68.8319,45.234 C68.6239,44.697 68.4699,44.375 68.3689,44.27 C68.2659,44.163 68.0639,44.109 67.7589,44.109 L67.7589,43.777 L70.4689,43.777 L70.4689,44.109 C70.1639,44.109 69.9539,44.138 69.8429,44.193 C69.7319,44.249 69.6759,44.345 69.6759,44.481 C69.6759,44.578 69.7709,44.861 69.9599,45.33 L71.1669,48.513 L73.0069,43.777 L73.2879,43.777 L75.0709,48.513 L76.3779,45.139 C76.5179,44.782 76.5889,44.567 76.5889,44.494 C76.5889,44.257 76.3449,44.129 75.8569,44.109 L75.8569,43.777 L77.7829,43.777 L77.7829,44.109 C77.5519,44.115 77.3679,44.159 77.2369,44.244 C77.1029,44.328 76.9809,44.518 76.8699,44.813 L76.7119,45.234 L74.8659,49.948 Z" id="Fill-17"></path>
                <path d="M84.3003,46.0867 L83.5073,46.4057 C82.2593,46.9127 81.6343,47.5497 81.6343,48.3177 C81.6343,48.6217 81.7133,48.8677 81.8743,49.0527 C82.0343,49.2387 82.2423,49.3317 82.4983,49.3317 C82.7263,49.3317 82.9903,49.2577 83.2903,49.1077 C83.5893,48.9577 83.9263,48.7327 84.3003,48.4337 L84.3003,46.0867 Z M86.3953,48.6217 L86.6613,48.6217 C86.6163,49.4467 86.2133,49.8607 85.4483,49.8607 C85.1203,49.8607 84.8623,49.7737 84.6713,49.6007 C84.4803,49.4267 84.3583,49.1677 84.3003,48.8247 C83.8163,49.1677 83.3743,49.4267 82.9763,49.6007 C82.5763,49.7737 82.2193,49.8607 81.9043,49.8607 C81.5033,49.8607 81.1583,49.7447 80.8673,49.5137 C80.5773,49.2807 80.4313,48.9747 80.4313,48.5927 C80.4313,48.0957 80.6753,47.6607 81.1603,47.2897 C81.6473,46.9167 82.3193,46.5557 83.1753,46.2027 L84.3003,45.7467 L84.3003,45.4567 C84.3003,45.0467 84.2723,44.7497 84.2193,44.5657 C84.1663,44.3827 84.0283,44.2177 83.8063,44.0737 C83.5823,43.9297 83.2903,43.8557 82.9263,43.8557 C82.2003,43.8557 81.7963,44.0987 81.7133,44.5807 C81.6373,45.0727 81.4333,45.3197 81.1053,45.3197 C80.8113,45.3197 80.6643,45.1797 80.6643,44.8997 C80.6643,44.6237 80.8593,44.3287 81.2503,44.0117 C81.6413,43.6957 82.2493,43.5377 83.0753,43.5377 C83.6893,43.5377 84.1643,43.6347 84.5023,43.8277 C84.8403,44.0197 85.0643,44.2407 85.1723,44.4867 C85.2803,44.7327 85.3353,45.1087 85.3353,45.6157 L85.3353,48.0137 C85.3353,48.5737 85.3643,48.9337 85.4223,49.0937 C85.4803,49.2527 85.6073,49.3317 85.8003,49.3317 C86.1203,49.3317 86.3193,49.0947 86.3953,48.6217 Z" id="Fill-19"></path>
                <path d="M92.8147,44.1023 L91.0257,44.1023 L91.0257,47.6873 C91.0257,48.2383 91.0497,48.6083 91.0977,48.7993 C91.1467,48.9893 91.2497,49.1443 91.4057,49.2593 C91.5627,49.3753 91.7307,49.4333 91.9097,49.4333 C92.2577,49.4333 92.5587,49.2353 92.8147,48.8393 L93.0477,48.9783 C92.8967,49.2953 92.6757,49.5353 92.3847,49.6973 C92.0917,49.8583 91.7967,49.9403 91.4967,49.9403 C91.1497,49.9403 90.8437,49.8373 90.5807,49.6323 C90.3177,49.4273 90.1537,49.1873 90.0877,48.9113 C90.0227,48.6363 89.9897,48.1533 89.9897,47.4623 L89.9897,44.1023 L89.1327,44.1023 L89.1327,43.7733 C89.5267,43.7643 89.8817,43.5973 90.1957,43.2733 C90.5087,42.9503 90.7077,42.4963 90.7947,41.9113 L91.0257,41.9113 L91.0257,43.7693 L92.8147,43.7693 L92.8147,44.1023 Z" id="Fill-21"></path>
                <path d="M99.8014,45.4932 C99.8164,45.3822 99.8244,45.2832 99.8244,45.1962 C99.8244,44.7712 99.6994,44.4422 99.4494,44.2082 C99.2004,43.9732 98.8944,43.8562 98.5304,43.8562 C97.6494,43.8562 97.1254,44.4022 96.9554,45.4932 L99.8014,45.4932 Z M101.0694,45.7902 L96.9264,45.7902 C96.9074,46.0742 96.8974,46.2862 96.8974,46.4262 C96.8974,47.4672 97.0604,48.2492 97.3874,48.7732 C97.7134,49.2962 98.2014,49.5572 98.8504,49.5572 C99.7304,49.5572 100.3564,49.1632 100.7244,48.3752 L101.0694,48.3752 C100.9144,48.8682 100.6074,49.2542 100.1484,49.5312 C99.6894,49.8092 99.1894,49.9482 98.6464,49.9482 C98.1434,49.9482 97.6694,49.8202 97.2224,49.5672 C96.7744,49.3132 96.4074,48.9552 96.1234,48.4912 C95.8374,48.0272 95.6954,47.4662 95.6954,46.8042 C95.6954,45.8672 95.9704,45.0892 96.5214,44.4682 C97.0734,43.8472 97.7624,43.5372 98.5884,43.5372 C99.3674,43.5372 99.9694,43.7752 100.3944,44.2492 C100.8194,44.7252 101.0444,45.2372 101.0694,45.7902 Z" id="Fill-23"></path>
                <path d="M106.1729,45.051 C106.3379,44.622 106.6029,44.262 106.9729,43.972 C107.3429,43.682 107.7029,43.538 108.0559,43.538 C108.3749,43.538 108.6269,43.637 108.8099,43.834 C108.9939,44.032 109.0849,44.235 109.0849,44.443 C109.0849,44.583 109.0369,44.703 108.9449,44.805 C108.8489,44.907 108.7349,44.957 108.5989,44.957 C108.3579,44.957 108.1749,44.778 108.0489,44.422 C107.9619,44.179 107.8319,44.059 107.6569,44.059 C107.4509,44.059 107.2019,44.2 106.9119,44.483 C106.6219,44.765 106.4379,45.059 106.3549,45.363 C106.2729,45.667 106.2309,46.085 106.2309,46.616 L106.2309,47.673 C106.2309,48.306 106.2389,48.704 106.2569,48.868 C106.2739,49.032 106.3439,49.158 106.4639,49.245 C106.5859,49.332 106.8019,49.375 107.1139,49.375 L107.3169,49.375 L107.3169,49.708 L104.1669,49.708 L104.1669,49.375 L104.3179,49.375 C104.6089,49.375 104.8149,49.336 104.9379,49.255 C105.0609,49.176 105.1339,49.064 105.1599,48.92 C105.1839,48.774 105.1959,48.359 105.1959,47.673 L105.1959,46 C105.1959,45.363 105.1859,44.963 105.1689,44.802 C105.1539,44.639 105.0839,44.514 104.9649,44.425 C104.8429,44.335 104.6279,44.291 104.3179,44.291 L104.1669,44.291 L104.1669,43.965 C104.6189,43.912 105.2099,43.769 105.9419,43.538 C106.0819,43.919 106.1589,44.424 106.1729,45.051" id="Fill-25"></path>
                <path d="M59.9496,18.4365 C59.9496,18.4365 61.6986,21.4905 62.0656,22.1905 C62.5496,23.1185 61.8876,23.5155 61.8876,23.5155 C61.8876,23.5155 61.0066,23.9575 60.5666,23.1625 C60.1926,22.4865 58.9736,20.3365 58.5396,19.6725 C57.9816,18.8185 57.7466,18.5245 56.9976,18.5245 L55.2196,18.5245 L55.1016,18.5245 L53.3106,18.5245 C52.5566,18.5245 52.3176,18.8185 51.7556,19.6725 C51.3196,20.3365 50.0906,22.4865 49.7136,23.1625 C49.2686,23.9575 48.3806,23.5155 48.3806,23.5155 C48.3806,23.5155 47.7156,23.1185 48.2036,22.1905 C48.5726,21.4905 50.3356,18.4365 50.3356,18.4365 C50.3356,18.4365 50.7786,17.7595 50.7786,17.2005 L50.7786,15.6385 L50.7786,15.3435 L50.7786,13.7875 C50.7786,13.2285 50.3356,12.5535 50.3356,12.5535 C50.3356,12.5535 48.5726,9.5065 48.2036,8.8085 C47.7156,7.8825 48.3806,7.4865 48.3806,7.4865 C48.3806,7.4865 49.2686,7.0455 49.7136,7.8395 C50.0906,8.5125 51.3196,10.6585 51.7556,11.3195 C52.3176,12.1725 52.5566,12.4645 53.3106,12.4645 L55.1016,12.4645 L55.2196,12.4645 L56.9976,12.4645 C57.7466,12.4645 57.9816,12.1725 58.5396,11.3195 C58.9736,10.6585 60.1926,8.5125 60.5666,7.8395 C61.0066,7.0455 61.8876,7.4865 61.8876,7.4865 C61.8876,7.4865 62.5496,7.8825 62.0656,8.8085 C61.6986,9.5065 59.9496,12.5535 59.9496,12.5535 C59.9496,12.5535 59.5086,13.2285 59.5086,13.7875 L59.5086,15.3435 L59.5086,15.6385 L59.5086,17.2005 C59.5086,17.7595 59.9496,18.4365 59.9496,18.4365 M53.3256,2.3015 L58.5536,2.3015 C59.0006,2.3015 59.3626,2.6635 59.3626,3.1105 C59.3626,3.5565 59.0006,3.9165 58.5536,3.9165 L53.3256,3.9165 C52.8796,3.9165 52.5176,3.5565 52.5176,3.1105 C52.5176,2.6635 52.8796,2.3015 53.3256,2.3015 M64.5906,4.0055 C64.4586,3.7415 63.6066,2.0525 63.6066,2.0525 C63.6066,2.0525 63.9316,1.8605 64.0776,1.7875 C64.2246,1.7145 64.3346,1.6215 64.1346,1.2445 C63.9216,0.8375 63.7096,0.9555 63.7096,0.9555 C63.7096,0.9555 63.4236,1.1135 63.1076,1.2745 C62.5786,0.4945 61.8436,0.4195 61.6236,0.4215 C61.4776,0.4225 60.7576,0.4215 60.5376,0.4215 C60.3166,0.4215 60.1116,0.4505 60.0226,0.5685 C59.9356,0.6865 59.7296,0.7895 59.4786,0.7895 L52.0326,0.7895 C51.9596,0.7955 51.9446,0.7445 51.8996,0.7155 C51.4006,0.4365 50.8506,0.7085 50.7316,0.8405 C50.6156,0.9725 50.1446,1.5455 49.8666,1.8605 C49.5866,2.1765 49.3446,2.2365 49.1546,2.2945 C49.2716,2.1405 49.1836,1.9935 49.1836,1.9935 L49.0736,1.7735 L49.2276,1.3555 L49.3666,1.2815 L49.2856,1.0895 C49.2856,1.0895 49.1976,1.1275 49.0356,1.2075 C48.8756,1.2885 48.8756,1.3625 48.8756,1.3625 C48.8016,1.6265 48.6106,1.6405 48.6106,1.6405 C48.6106,1.6405 48.1846,0.8335 48.1256,0.7305 C48.0666,0.6265 47.9496,0.3045 46.5256,1.0685 C45.0996,1.8325 45.4376,2.1255 45.4376,2.1255 L45.9226,3.0645 L45.7756,3.1825 L46.1296,3.8885 C46.1296,3.8885 46.0396,3.9315 45.7306,4.1375 C45.4236,4.3435 45.0856,4.5485 45.0856,5.1065 L45.0856,25.6115 C45.0856,27.1535 45.5266,27.8585 47.2446,27.8585 L62.9306,27.8585 C63.9446,27.8585 64.9146,27.3285 64.9146,25.5675 L64.9146,5.2975 C64.9146,4.2845 64.7226,4.2695 64.5906,4.0055 M57.3926,13.8755 L52.9886,13.8755 C52.5986,13.8755 52.2826,14.1905 52.2826,14.5805 L52.2826,16.4895 C52.2826,16.8795 52.5986,17.1955 52.9886,17.1955 L57.3926,17.1955 C57.7826,17.1955 58.0986,16.8795 58.0986,16.4895 L58.0986,14.5805 C58.0986,14.1905 57.7826,13.8755 57.3926,13.8755" id="Fill-27"></path>
            </g>
        </g>
    </g>
</svg>