<?xml version="1.0" encoding="UTF-8"?>
<svg width="351px" height="160px" viewBox="0 0 351 160" version="1.1" xmlns="http://www.w3.org/2000/svg" xmlns:xlink="http://www.w3.org/1999/xlink">
    <!-- Generator: Sketch 50.2 (55047) - http://www.bohemiancoding.com/sketch -->
    <title>Group</title>
    <desc>Created with Sketch.</desc>
    <defs>
        <path d="M163.472511,30.4169217 L179.231002,30.4169217 C193.820679,30.4169217 202.283356,38.8210598 202.283356,50.6087074 L202.283356,50.7257838 C202.283356,62.5153827 193.703603,71.2707501 178.9988,71.2707501 L163.472511,71.2707501 L163.472511,30.4169217 Z M179.406617,61.2314442 C186.173636,61.2314442 190.669371,57.4967054 190.669371,50.9013985 L190.669371,50.784322 C190.669371,44.2475534 186.173636,40.452325 179.406617,40.452325 L174.795756,40.452325 L174.795756,61.2314442 L179.406617,61.2314442 Z M178.999451,99.9989014 C151.427946,99.9989014 129,77.5690042 129,49.9994507 C129,22.4298972 151.427946,0 178.999451,0 C206.567053,0 228.998901,22.4298972 228.998901,49.9994507 C228.998901,77.5690042 206.567053,99.9989014 178.999451,99.9989014 M178.999451,12.8432869 C158.511071,12.8432869 141.843287,29.5110713 141.843287,49.9994507 C141.843287,70.48783 158.511071,87.1536632 178.999451,87.1536632 C199.483927,87.1536632 216.153663,70.48783 216.153663,49.9994507 C216.153663,29.5110713 199.483927,12.8432869 178.999451,12.8432869" id="path-1"></path>
    </defs>
    <g id="📖-Design-Kit" stroke="none" stroke-width="1" fill="none" fill-rule="evenodd">
        <g id="DNC-Design-Kit" transform="translate(-58.000000, -50.000000)">
            <g id="Group" transform="translate(54.000000, 50.000000)">
                <text id="Display-3-Copy" font-family="GothamSSm-Bold, Gotham SSm" font-size="48" font-weight="bold" line-spacing="62.4000015" letter-spacing="3" fill="#FFFFFF">
                    <tspan x="0.032" y="156">DEMOCRAT</tspan>
                    <tspan x="325.616" y="156">S</tspan>
                </text>
                <mask id="mask-2" fill="white">
                    <use xlink:href="#path-1"></use>
                </mask>
                <use id="Circle-Copy" fill="#FFFFFF" xlink:href="#path-1"></use>
            </g>
        </g>
    </g>
</svg>