<?xml version="1.0" encoding="UTF-8"?>
<svg width="327px" height="157px" viewBox="0 0 327 157" version="1.1" xmlns="http://www.w3.org/2000/svg" xmlns:xlink="http://www.w3.org/1999/xlink">
    <!-- Generator: Sketch 50.2 (55047) - http://www.bohemiancoding.com/sketch -->
    <title>dnc</title>
    <desc>Created with Sketch.</desc>
    <defs></defs>
    <g id="📖-Design-Kit" stroke="none" stroke-width="1" fill="none" fill-rule="evenodd">
        <g id="DNC-Design-Kit" transform="translate(-23.000000, -24.000000)" fill="#FFFFFF">
            <g id="dnc" transform="translate(23.000000, 24.000000)">
                <path d="M313.968,156 C308.64,156 303.36,154.176 299.184,150.432 L303.552,145.2 C306.72,147.84 310.032,149.52 314.112,149.52 C317.376,149.52 319.392,148.128 319.392,145.968 L319.392,145.872 C319.392,143.808 318.144,142.752 312.192,141.264 C305.04,139.488 300.576,137.472 300.576,130.608 L300.576,130.512 C300.576,124.272 305.664,120.096 312.768,120.096 C317.856,120.096 322.128,121.68 325.68,124.512 L321.792,130.08 C318.72,127.872 315.648,126.576 312.624,126.576 C309.552,126.576 307.92,128.064 307.92,129.84 L307.92,129.936 C307.92,132.336 309.456,133.152 315.6,134.736 C322.752,136.56 326.736,139.152 326.736,145.152 L326.736,145.248 C326.736,152.112 321.456,156 313.968,156 Z M0,155.52 L0,120.576 L13.488,120.576 C24.48,120.576 32.064,128.112 32.064,137.952 L32.064,138.048 C32.064,147.888 24.48,155.52 13.488,155.52 L0,155.52 Z M13.488,127.248 L7.344,127.248 L7.344,148.848 L13.488,148.848 C19.968,148.848 24.336,144.48 24.336,138.144 L24.336,138.048 C24.336,131.712 19.968,127.248 13.488,127.248 Z M38.408,155.52 L38.408,120.576 L64.664,120.576 L64.664,127.152 L45.704,127.152 L45.704,134.64 L62.408,134.64 L62.408,141.216 L45.704,141.216 L45.704,148.944 L64.904,148.944 L64.904,155.52 L38.408,155.52 Z M73.248,155.52 L73.248,120.576 L81.168,120.576 L90.624,135.696 L100.128,120.576 L108.048,120.576 L108.048,155.52 L100.704,155.52 L100.704,132.24 L90.624,147.504 L90.432,147.504 L80.448,132.384 L80.448,155.52 L73.248,155.52 Z M133.872,156.096 C123.12,156.096 115.392,148.08 115.392,138.144 L115.392,138.048 C115.392,128.16 123.216,120 133.968,120 C144.72,120 152.448,128.016 152.448,137.952 L152.448,138.048 C152.448,147.936 144.624,156.096 133.872,156.096 Z M133.968,149.328 C140.304,149.328 144.72,144.288 144.72,138.144 L144.72,138.048 C144.72,131.904 140.208,126.768 133.872,126.768 C127.536,126.768 123.12,131.808 123.12,137.952 L123.12,138.048 C123.12,144.192 127.632,149.328 133.968,149.328 Z M176.112,156.096 C165.84,156.096 158.208,148.176 158.208,138.144 L158.208,138.048 C158.208,128.112 165.696,120 176.4,120 C182.976,120 186.912,122.16 190.176,125.376 L185.472,130.8 C182.736,128.304 179.952,126.768 176.352,126.768 C170.304,126.768 165.936,131.808 165.936,137.952 L165.936,138.048 C165.936,144.192 170.208,149.328 176.352,149.328 C180.432,149.328 182.928,147.696 185.712,145.152 L190.416,149.904 C186.816,153.696 182.832,156.096 176.112,156.096 Z M204.384,137.616 L212.448,137.616 C216.288,137.616 218.592,135.552 218.592,132.48 L218.592,132.384 C218.592,129.024 216.192,127.248 212.304,127.248 L204.384,127.248 L204.384,137.616 Z M197.04,155.52 L197.04,120.576 L212.928,120.576 C217.344,120.576 220.8,121.824 223.104,124.128 C225.024,126.048 226.032,128.784 226.032,132 L226.032,132.096 C226.032,137.76 222.912,141.312 218.4,142.896 L227.136,155.52 L218.496,155.52 L210.768,144.144 L204.384,144.144 L204.384,155.52 L197.04,155.52 Z M243.936,141.024 L253.776,141.024 L248.88,129.168 L243.936,141.024 Z M230.496,155.52 L245.568,120.336 L252.384,120.336 L267.408,155.52 L259.68,155.52 L256.416,147.552 L241.296,147.552 L238.032,155.52 L230.496,155.52 Z M277.104,155.52 L277.104,127.392 L266.352,127.392 L266.352,120.576 L295.2,120.576 L295.2,127.392 L284.496,127.392 L284.496,155.52 L277.104,155.52 Z" id="DEMOCRAT"></path>
                <path d="M147.472511,30.4169217 L163.231002,30.4169217 C177.820679,30.4169217 186.283356,38.8210598 186.283356,50.6087074 L186.283356,50.7257838 C186.283356,62.5153827 177.703603,71.2707501 162.9988,71.2707501 L147.472511,71.2707501 L147.472511,30.4169217 Z M163.406617,61.2314442 C170.173636,61.2314442 174.669371,57.4967054 174.669371,50.9013985 L174.669371,50.784322 C174.669371,44.2475534 170.173636,40.452325 163.406617,40.452325 L158.795756,40.452325 L158.795756,61.2314442 L163.406617,61.2314442 Z M162.999451,99.9989014 C135.427946,99.9989014 113,77.5690042 113,49.9994507 C113,22.4298972 135.427946,0 162.999451,0 C190.567053,0 212.998901,22.4298972 212.998901,49.9994507 C212.998901,77.5690042 190.567053,99.9989014 162.999451,99.9989014 Z M162.999451,12.8432869 C142.511071,12.8432869 125.843287,29.5110713 125.843287,49.9994507 C125.843287,70.48783 142.511071,87.1536632 162.999451,87.1536632 C183.483927,87.1536632 200.153663,70.48783 200.153663,49.9994507 C200.153663,29.5110713 183.483927,12.8432869 162.999451,12.8432869 Z" id="path-1" fill-rule="nonzero"></path>
            </g>
        </g>
    </g>
</svg>