<?xml version="1.0" encoding="UTF-8"?>
<svg width="50px" height="50px" viewBox="0 0 50 50" version="1.1" xmlns="http://www.w3.org/2000/svg" xmlns:xlink="http://www.w3.org/1999/xlink">
    <!-- Generator: Sketch 50.2 (55047) - http://www.bohemiancoding.com/sketch -->
    <title>Circle Copy</title>
    <desc>Created with Sketch.</desc>
    <defs>
        <path d="M17.2360663,15.2082938 L25.115225,15.2082938 C32.4099836,15.2082938 36.6412752,19.4103166 36.6412752,25.3040757 L36.6412752,25.3626133 C36.6412752,31.2573479 32.351446,35.6349835 24.9991255,35.6349835 L17.2360663,35.6349835 L17.2360663,15.2082938 Z M25.2030314,30.6153858 C28.5865037,30.6153858 30.8343469,28.7480368 30.8343469,25.4504196 L30.8343469,25.3918821 C30.8343469,22.1235336 28.5865037,20.2259403 25.2030314,20.2259403 L22.8976262,20.2259403 L22.8976262,30.6153858 L25.2030314,30.6153858 Z M24.9994507,49.9989014 C11.2138498,49.9989014 0,38.784076 0,24.9994507 C0,11.2148254 11.2138498,0 24.9994507,0 C38.7831004,0 49.9989014,11.2148254 49.9989014,24.9994507 C49.9989014,38.784076 38.7831004,49.9989014 24.9994507,49.9989014 M24.9994507,6.42157292 C14.7553736,6.42157292 6.42157292,14.7553736 6.42157292,24.9994507 C6.42157292,35.2435278 14.7553736,43.5763528 24.9994507,43.5763528 C35.2415766,43.5763528 43.5763528,35.2435278 43.5763528,24.9994507 C43.5763528,14.7553736 35.2415766,6.42157292 24.9994507,6.42157292" id="path-1"></path>
    </defs>
    <g id="Symbols" stroke="none" stroke-width="1" fill="none" fill-rule="evenodd">
        <g id="Logo">
            <mask id="mask-2" fill="white">
                <use xlink:href="#path-1"></use>
            </mask>
            <use id="Circle-Copy" fill="#FFFFFF" xlink:href="#path-1"></use>
        </g>
    </g>
</svg>