<svg id="Primary-Light_on_Dark" xmlns="http://www.w3.org/2000/svg" viewBox="0 0 1500 1486"><defs><style>.cls-1{fill:#f7f7f7;}</style></defs><title>HCS_logo-PrimaryLight</title><path class="cls-1" d="M2750.5,2736.15h-1500v-1486h1500v1486Zm-1420.13-80.07H2670.63V1330.22H1330.37V2656.09Z" transform="translate(-1250.5 -1250.15)"/><path class="cls-1" d="M1611.76,1734h-55.84v100.9H1475V1553.72h80.88v98.59h55.84v-98.59h80.88v147l-80.88,126.44V1734Z" transform="translate(-1250.5 -1250.15)"/><path class="cls-1" d="M1887.73,1553.72h102.06c70.48,0,108.22,45.83,108.22,99.36,0,36.59-15.4,69.32-47,87l53.53,94.74h-90.51l-45.83-92.43v92.43h-80.49V1553.72Zm80.49,73.17v55.84h17.72c15.4,0,29.65-9.24,29.65-28.11,0-18.1-14.25-27.73-29.65-27.73h-17.72Z" transform="translate(-1250.5 -1250.15)"/><path class="cls-1" d="M2102.72,1553.72h91.66c80.11,0,144,60.85,144,140.57,0,80.11-62.78,140.57-144,140.57h-91.66V1553.72Zm80.11,75.49v130.17h11.55c37.74,0,62-29.65,62-65.09s-25.42-65.09-62-65.09h-11.55Z" transform="translate(-1250.5 -1250.15)"/><path class="cls-1" d="M1848.93,1851.46h82.42l83.57,131.33V1851.46H2095v281.15h-76.26L1929,1991.27v141.34h-80.11V1851.46Z" transform="translate(-1250.5 -1250.15)"/><path class="cls-1" d="M2102.54,1851.46h91.66c80.11,0,144,60.85,144,140.57,0,80.11-62.78,140.57-144,140.57h-91.66V1851.46Zm80.11,75.49v130.17h11.55c37.74,0,62-29.65,62-65.09s-25.42-65.09-62-65.09h-11.55Z" transform="translate(-1250.5 -1250.15)"/><path class="cls-1" d="M2374.45,2003.21l-85.89-151.74h86.27l40.05,72.79,39.67-72.79h85.5l-84.73,151v130.17h-80.88v-129.4Z" transform="translate(-1250.5 -1250.15)"/><path class="cls-1" d="M1606.31,2335.61h83.57v3.85c0,13.09,8.47,23.11,21.57,23.11,11.94,0,18.49-8.09,18.49-15.41,0-13.48-20-18.49-43.9-27-33.89-11.94-77-32.74-77-87.81,0-50.84,37-87.42,97.82-87.42,63.93,0,98.59,32.74,99.36,93.59h-79.34v-3.08c0-13.09-6.93-20.8-20-20.8-11.94,0-17.72,6.55-17.72,14.63,0,10,19.26,16.95,42.36,25,35.43,12.32,81.26,32.35,81.26,90.12,0,46.6-32.74,90.12-100.9,90.12C1644.82,2434.59,1606.31,2401.86,1606.31,2335.61Z" transform="translate(-1250.5 -1250.15)"/><path class="cls-1" d="M1954.11,2329.45h-55.84v100.9h-80.88V2149.21h80.88v98.59h55.84v-98.59H2035v281.15h-80.88v-100.9Z" transform="translate(-1250.5 -1250.15)"/><path class="cls-1" d="M2042.49,2149.21h166.76v73.95H2122.6V2252h86.65V2326H2122.6v30.81h86.65v73.56H2042.49V2149.21Z" transform="translate(-1250.5 -1250.15)"/><path class="cls-1" d="M2216.76,2149.21h80.88v203.73h68.31v77.41H2216.76V2149.21Z" transform="translate(-1250.5 -1250.15)"/><path class="cls-1" d="M2374.34,2149.21h80.88v203.73h81.65v77.41H2374.34V2149.21Z" transform="translate(-1250.5 -1250.15)"/><path class="cls-1" d="M1472.95,1992c0-79.71,60.46-144.4,143.63-144.4,43.13,0,79.71,15.79,105,41.47l-47.36,73.31c-11.34-21.87-30.91-35.45-56.49-35.45-37.35,0-61.23,29.65-61.23,65.08s23.1,65.08,60.84,65.08a56.86,56.86,0,0,0,8.09-.39l129.77-205.24h86.25v281.1h-79.71v-27.34h-76.24L1672.8,2126a155.38,155.38,0,0,1-56.22,10.4C1533.4,2136.43,1472.95,2072.13,1472.95,1992Zm288.8,41.59v-52.37l-32.35,52.37h32.35Z" transform="translate(-1250.5 -1250.15)"/><path class="cls-1" d="M1794.08,1553.82h86.24v281h-79.69v-27.33h-76.23l-16.55,27.33h-91.63Zm6.54,182.1v-52.36l-32.34,52.36h32.34Z" transform="translate(-1250.5 -1250.15)"/></svg>