<?xml version="1.0" encoding="UTF-8"?>
<svg width="360px" height="360px" viewBox="0 0 360 360" version="1.1" xmlns="http://www.w3.org/2000/svg" xmlns:xlink="http://www.w3.org/1999/xlink">
    <!-- Generator: Sketch 51.2 (57519) - http://www.bohemiancoding.com/sketch -->
    <title>0010_Welcome Copy 2</title>
    <desc>Created with Sketch.</desc>
    <defs></defs>
    <g id="0010_Welcome-Copy-2" stroke="none" stroke-width="1" fill="none" fill-rule="evenodd">
        <rect fill="#B6E4C5" x="0" y="0" width="360" height="360"></rect>
        <g id="Logo-lockup" transform="translate(72.000000, 83.000000)">
            <g id="Group" transform="translate(0.000000, 157.000000)" fill="#02681F">
                <polygon id="Fill-1" points="0 2.09661836 0 6.88896259 8.86721671 6.88896259 8.86721671 28.3043478 14.1974991 28.3043478 14.1974991 6.88896259 23.0628019 6.88896259 23.0628019 2.09661836"></polygon>
                <path d="M25.3205524,18.8633411 C25.3205524,22.1704072 27.4565472,24.2990503 30.2025582,24.2990503 C32.6426226,24.2990503 35.084564,22.4360199 35.084564,18.9774424 L35.084564,18.7866501 C35.084564,15.3280726 32.6426226,13.4650422 30.2025582,13.4650422 C27.4565472,13.4650422 25.3205524,15.5562751 25.3205524,18.8633411 M35.3116777,11.8320848 L35.6927031,9.2470366 L39.9665698,9.2470366 L39.9665698,28.5189264 L35.6927031,28.5189264 L35.3116777,25.9338782 C34.2455572,27.4920151 32.4905878,28.9360507 29.1721002,28.9360507 C23.9841479,28.9360507 20.207679,24.5272529 20.207679,18.8633411 C20.207679,13.1994294 23.9841479,8.82804181 29.1721002,8.82804181 C32.4905878,8.82804181 34.2455572,10.2720774 35.3116777,11.8320848" id="Fill-2"></path>
                <path d="M49.5783589,18.7873983 L49.5783589,19.0156009 C49.6177753,22.3993579 52.0578397,24.2997985 54.4622417,24.2997985 C57.1688362,24.2997985 59.3423705,22.1711554 59.3423705,18.8640893 C59.3423705,15.5551528 57.2063757,13.4657904 54.4622417,13.4657904 C52.0203003,13.4657904 49.5783589,15.3288208 49.5783589,18.7873983 M64.4909064,18.8640893 C64.4909064,24.5261305 60.676898,28.9367989 55.4889457,28.9367989 C52.7053953,28.9367989 50.6838958,27.7957863 49.6928542,26.389161 L49.6928542,36.6900731 L44.7338926,36.6900731 L44.7338926,9.24591429 L49.0058823,9.24591429 L49.3493682,11.8309625 C50.4173657,10.2728256 52.2098745,8.82879002 55.4889457,8.82879002 C60.676898,8.82879002 64.4909064,13.2001776 64.4909064,18.8640893" id="Fill-4"></path>
                <path d="M74.0321214,9.24684955 L78.4542689,9.24684955 L78.4542689,13.7323384 L73.9927049,13.7323384 L73.915749,21.5248933 C73.915749,23.5001545 74.5276421,24.2988633 76.4346463,24.2988633 C77.3881484,24.2988633 77.9212086,24.184762 78.4542689,24.0332505 L78.4542689,28.3672279 C77.8461297,28.5935599 76.8532112,28.7843522 75.3272325,28.7843522 C71.0946592,28.7843522 68.9192479,27.0747038 68.9586643,22.7033162 L69.0337433,13.7323384 L65.8672904,13.7323384 L65.8672904,9.24684955 L69.0337433,9.24684955 L69.0731597,4.57056841 L74.0696608,4.57056841 L74.0321214,9.24684955 Z" id="Fill-6"></path>
                <path d="M85.5323326,18.8633411 C85.5323326,22.1704072 87.6683275,24.2990503 90.4143384,24.2990503 C92.8544028,24.2990503 95.2963442,22.4360199 95.2963442,18.9774424 L95.2963442,18.7866501 C95.2963442,15.3280726 92.8544028,13.4650422 90.4143384,13.4650422 C87.6683275,13.4650422 85.5323326,15.5562751 85.5323326,18.8633411 M95.5253349,11.8320848 L95.9063603,9.2470366 L100.17835,9.2470366 L100.17835,28.5189264 L95.9063603,28.5189264 L95.5253349,25.9338782 C94.4573375,27.4920151 92.7023681,28.9360507 89.3838805,28.9360507 C84.1959281,28.9360507 80.4194592,24.5272529 80.4194592,18.8633411 C80.4194592,13.1994294 84.1959281,8.82804181 89.3838805,8.82804181 C92.7023681,8.82804181 94.4573375,10.2720774 95.5253349,11.8320848" id="Fill-8"></path>
                <path d="M109.789951,18.7873983 L109.789951,19.0156009 C109.829368,22.3993579 112.269432,24.2997985 114.673834,24.2997985 C117.380429,24.2997985 119.553963,22.1711554 119.553963,18.8640893 C119.553963,15.5551528 117.417968,13.4657904 114.673834,13.4657904 C112.231893,13.4657904 109.789951,15.3288208 109.789951,18.7873983 M124.702499,18.8640893 C124.702499,24.5261305 120.890368,28.9367989 115.700538,28.9367989 C112.916988,28.9367989 110.897365,27.7957863 109.904447,26.389161 L109.904447,36.6900731 L104.945485,36.6900731 L104.945485,9.24591429 L109.217475,9.24591429 L109.560961,11.8309625 C110.628958,10.2728256 112.421467,8.82879002 115.700538,8.82879002 C120.890368,8.82879002 124.702499,13.2001776 124.702499,18.8640893" id="Fill-10"></path>
                <path d="M151.937559,9.36095081 L146.635112,9.36095081 C146.560033,7.23043712 145.225505,6.05388479 143.391703,6.05388479 C141.524115,6.05388479 140.381039,7.08079613 140.381039,8.90454577 C140.381039,10.9190877 141.828185,11.5644145 145.071594,12.7054271 C150.755067,14.6058677 152.776566,16.9627134 152.776566,20.954387 C152.776566,26.0852027 148.925018,29.0125547 143.889101,29.0125547 C137.787063,29.0125547 134.618733,25.4398759 134.466698,20.3838807 L139.769146,20.3838807 C139.883641,23.0063392 141.295125,24.4129645 143.96418,24.4129645 C146.179007,24.4129645 147.474119,23.1578507 147.474119,21.4089215 C147.474119,19.6244527 146.062635,18.5975413 142.746024,17.4958095 C137.899681,15.9376726 135.078591,13.8071589 135.078591,9.36095081 C135.078591,4.72395043 138.243167,1.4150139 143.508075,1.4150139 C148.504576,1.4150139 151.708569,4.07675312 151.937559,9.36095081" id="Fill-12"></path>
                <path d="M160.442498,16.9627134 L168.871982,16.9627134 C168.834442,14.5291767 167.231508,12.9336296 164.791443,12.9336296 C162.311963,12.9336296 160.671488,14.6058677 160.442498,16.9627134 M173.868483,18.8631541 L173.868483,20.3838807 L160.404958,20.3838807 C160.556993,22.9296482 162.351379,24.7178581 165.057973,24.7178581 C166.964978,24.7178581 168.414001,23.9191493 168.948938,22.4751136 L173.753988,22.4751136 C172.571495,26.5416077 169.596493,28.9358637 164.905939,28.9358637 C159.184926,28.9358637 155.293962,24.9834708 155.293962,18.9024348 C155.293962,13.0851411 159.14551,8.82785476 164.905939,8.82785476 C170.016935,8.82785476 173.868483,12.0208195 173.868483,18.8631541" id="Fill-14"></path>
                <path d="M193.687249,16.0128672 L193.687249,28.5191135 L188.692625,28.5191135 L188.692625,17.0771888 C188.692625,14.8344444 187.737246,13.6186113 185.944737,13.6186113 C184.037733,13.6186113 182.511754,15.1393379 182.511754,18.3304321 L182.511754,28.5191135 L177.592209,28.5191135 L177.592209,9.24722365 L181.826659,9.24722365 L182.207685,11.7555809 C183.086108,10.120753 184.8392,8.82822886 187.433176,8.82822886 C191.551254,8.82822886 193.687249,11.6414796 193.687249,16.0128672" id="Fill-16"></path>
                <path d="M202.080508,18.8633411 C202.080508,22.1704072 204.216503,24.2990503 206.962513,24.2990503 C209.402578,24.2990503 211.844519,22.4360199 211.844519,18.9774424 L211.844519,18.7492399 C211.80698,15.3280726 209.365038,13.4650422 206.962513,13.4650422 C204.254042,13.4650422 202.080508,15.5936854 202.080508,18.8633411 Z M216.726525,28.5189264 L212.454535,28.5189264 L212.071633,25.9338782 C211.005513,27.4920151 209.250543,28.9360507 205.932056,28.9360507 C200.744103,28.9360507 196.967634,24.5272529 196.967634,18.8633411 C196.967634,13.1994294 200.744103,8.82804181 205.969595,8.82804181 C208.715606,8.82804181 210.737105,9.96905441 211.767563,11.3382695 L211.767563,0.76987415 L216.726525,0.76987415 L216.726525,28.5189264 Z" id="Fill-18"></path>
            </g>
            <g id="Group-37" transform="translate(48.000000, 0.000000)">
                <path d="M104.794406,111.33378 C89.2660945,124.967234 60.6822816,118.681908 48.1932218,99.9797048 C35.7041621,81.2755551 40.7845569,56.0252449 59.5415855,43.5674909 L59.5337725,43.5577583 C59.8775439,43.3475337 60.2174088,43.133416 60.5475075,42.9154053 C68.8292738,37.4437262 73.2768166,28.1568599 69.012879,19.1580791 C64.7469881,10.1573519 53.9689725,6.30712727 44.9371595,10.5583358 C35.9053465,14.8095444 32.0437777,25.5504642 36.3077153,34.5492449 C37.5753725,37.2198759 39.4172842,39.4330738 41.6127335,41.1187636 C25.2796842,59.1747209 22.6017829,86.6031914 36.7374296,107.771641 C53.4689413,132.827298 87.4105101,139.620667 112.550749,122.948689 L104.794406,111.33378 Z" id="Fill-21" fill="#FBEEE5"></path>
                <path d="M69.012293,19.1571059 C73.2781839,28.1578332 68.8286878,37.4427529 60.5469216,42.9144321 C60.2168229,43.1324428 59.8769579,43.348507 59.5331865,43.556785 L59.5409995,43.5684642 C59.5507657,43.5626246 59.5585787,43.556785 59.5663917,43.5509455 L104.817259,111.315288 C104.80554,111.32502 104.79382,111.332806 104.784054,111.340593 C104.786007,111.338646 104.789914,111.336699 104.79382,111.332806 L104.811399,111.360058 C114.132293,100.564635 119.595524,86.4134053 119.099399,71.0592235 C118.128636,41.0749668 94.8361683,17.0645925 65.6331761,14.314154 C66.9809164,15.7000791 68.1391917,17.3137476 69.012293,19.1571059" id="Fill-23" fill="#FFFFFF"></path>
                <path d="M41.6133195,41.1193476 C39.4178701,39.4336578 37.5759584,37.2204599 36.3083013,34.5498289 C33.8647896,29.3934866 34.0991792,23.6687594 36.4372156,18.9172941 C14.8655584,28.2645027 0.0931532468,50.0071765 0.897890909,74.8623422 C1.3862026,89.8992406 7.49986494,103.419797 17.1430442,113.528096 C17.1410909,113.530043 17.1391377,113.530043 17.1391377,113.531989 C17.244613,113.644888 17.363761,113.75 17.4731429,113.862898 C17.9145766,114.318385 18.3540571,114.777765 18.8091636,115.219626 C18.8169766,115.215733 18.8228364,115.21184 18.8286961,115.209893 C19.6842182,116.037166 20.5651325,116.843027 21.4655792,117.623583 C25.0322078,112.56262 30.3430857,108.866171 36.4547948,107.330364 C22.6472935,86.2222567 25.3916052,59.0487807 41.6133195,41.1193476" id="Fill-25" fill="#FFFFFF"></path>
                <path d="M54.3781777,0.944648128 C40.0100945,-0.236891979 27.3999335,10.4105947 26.2143127,24.7292257 C25.44864,33.9713219 29.6324945,42.4756856 36.5567543,47.6690118 C38.0627075,45.3798995 39.744453,43.1861668 41.6137101,41.1189583 C39.4182608,39.4332684 37.5743958,37.2200706 36.3086919,34.5494396 C32.042801,25.5506588 35.9063231,14.809739 44.9381361,10.5585305 C53.8234556,6.37739679 64.3846608,10.0465947 68.7853257,18.7358781 L75.8931906,15.9173112 C72.0628738,7.72244492 64.0662816,1.74077647 54.3781777,0.944648128" id="Fill-27" fill="#FF302E"></path>
                <path d="M36.4555761,107.330558 C30.3341008,108.868312 25.0134566,112.574494 21.4429216,117.649082 C23.5641475,119.410687 25.816241,121.020462 28.1738099,122.474516 C29.9043865,120.066665 32.2463294,118.04812 35.1215086,116.693339 C37.5064229,115.568248 40.0143917,115.021275 42.4911086,114.974558 C40.4089475,112.771093 38.4752332,110.376868 36.7387969,107.772419 C36.6411345,107.62643 36.5512852,107.476548 36.4555761,107.330558" id="Fill-29" fill="#02681F"></path>
                <path d="M59.5663917,43.5505561 C40.7898306,56.0024706 35.6977164,81.2664064 48.1945891,99.9802888 C60.6875553,118.692225 89.2948073,124.975604 104.817259,111.314898 L59.5663917,43.5505561 Z" id="Fill-31" fill="#02681F"></path>
                <path d="M61.8114535,27.3994674 C64.0186223,26.3600235 64.9620405,23.7341626 63.92096,21.5345904 C62.8779262,19.3350182 60.2429964,18.3948471 58.0358275,19.4323444 C55.8286587,20.4717882 54.8832873,23.0976492 55.926321,25.2972214 C56.9693548,27.4967936 59.6042847,28.4389112 61.8114535,27.3994674" id="Fill-33" fill="#02681F"></path>
                <path d="M69.9469216,30.9950866 L97.1634618,12.4466588 C97.7181839,12.0378888 97.3763657,11.1619529 96.6888229,11.2320278 L75.8926047,15.9173112 L68.7847397,18.7358781 C68.8570099,18.8799209 68.9429527,19.0122845 69.0113164,19.1563273 C70.9118255,23.1681134 71.0739449,27.2324556 69.9469216,30.9950866" id="Fill-35" fill="#02681F"></path>
            </g>
        </g>
    </g>
</svg>