<svg width="245" height="97" viewBox="0 0 245 97" fill="none" xmlns="http://www.w3.org/2000/svg">
<g clip-path="url(#clip0_3_191)">
<path d="M11.6694 85.0235H12.3732C11.628 87.5574 9.76937 88.8244 6.79302 88.8244C4.88054 88.8244 3.26611 88.1785 1.96215 86.8828C0.654051 85.5912 0 83.88 0 81.7492C0 79.6184 0.703726 77.792 2.11532 76.4346C3.52691 75.0772 5.19515 74.3984 7.12005 74.3984C8.27913 74.3984 9.34299 74.6494 10.3158 75.1553C11.2927 75.6613 11.7812 76.2783 11.7812 77.0064C11.7812 77.2779 11.6901 77.5329 11.508 77.7715C11.33 78.0101 11.0692 78.1294 10.7297 78.1294C10.0053 78.1294 9.56239 77.7098 9.40095 76.8747C9.26848 76.2454 9.06978 75.8052 8.79657 75.5543C8.51094 75.3034 7.96038 75.18 7.14075 75.18C5.67534 75.18 4.57422 75.686 3.83324 76.6938C3.09639 77.7057 2.72797 79.2276 2.72797 81.2597C2.72797 83.2917 3.12537 84.9988 3.92017 86.1835C4.71496 87.3682 5.91958 87.9605 7.52987 87.9605C9.699 87.9605 11.0816 86.9815 11.6736 85.0276L11.6694 85.0235Z" fill="white"/>
<path d="M22.9622 77.1336C23.6204 76.2204 24.3531 75.5376 25.1686 75.081C25.984 74.6244 26.8782 74.3982 27.851 74.3982C28.9563 74.3982 29.8711 74.6244 30.5997 75.081C31.3241 75.5376 31.8001 76.1011 32.0195 76.7675C32.2389 77.438 32.3466 78.5199 32.3466 80.0213V83.7028C32.3466 85.2701 32.3797 86.2203 32.4376 86.5576C32.4997 86.8949 32.6736 87.1417 32.9716 87.298C33.2655 87.4543 33.812 87.5366 34.6109 87.5366V88.2852H27.673V87.5366H27.9876C28.7824 87.5366 29.2998 87.4255 29.5358 87.1952C29.7717 86.9689 29.9084 86.6974 29.9456 86.3848C29.987 86.0763 30.0036 85.1796 30.0036 83.7028V79.6922C30.0036 78.5857 29.9373 77.763 29.809 77.2323C29.6765 76.7017 29.3661 76.2575 28.8817 75.9119C28.3933 75.5623 27.7848 75.3895 27.0521 75.3895C26.1993 75.3895 25.4335 75.6363 24.7546 76.134C24.0757 76.6277 23.4796 77.3681 22.9663 78.3594V83.7069C22.9663 85.2083 22.9911 86.1298 23.0408 86.4794C23.0905 86.8291 23.2561 87.0923 23.5417 87.2692C23.8273 87.4502 24.3448 87.5407 25.0982 87.5407V88.2893H18.2762V87.5407H18.6198C19.4104 87.5407 19.9196 87.4296 20.1555 87.2075C20.3915 86.9854 20.5281 86.718 20.5654 86.4095C20.6026 86.0969 20.6233 85.2001 20.6233 83.711V70.4122C20.6233 69.063 20.495 68.2115 20.2383 67.8537C19.9817 67.4958 19.369 67.3148 18.3921 67.3148V66.5661C20.0852 66.5661 21.4968 66.3358 22.6269 65.8833H22.9704V77.146L22.9622 77.1336Z" fill="white"/>
<path d="M54.8368 85.8377H55.437C55.3377 87.697 54.4187 88.6266 52.6884 88.6266C51.9474 88.6266 51.3596 88.4292 50.929 88.0384C50.4985 87.6476 50.217 87.0635 50.0887 86.2943C48.9917 87.0676 47.99 87.6476 47.0875 88.0384C46.181 88.4292 45.3737 88.6266 44.6617 88.6266C43.751 88.6266 42.9687 88.3675 42.3105 87.8451C41.6523 87.3227 41.3253 86.6316 41.3253 85.7719C41.3253 84.653 41.8758 83.674 42.9769 82.839C44.0739 82.0039 45.5973 81.1854 47.5387 80.3956L50.0887 79.3672V78.7132C50.0887 77.7876 50.0266 77.1213 49.9066 76.7058C49.7865 76.2945 49.4719 75.9243 48.9669 75.5993C48.466 75.2743 47.7995 75.1098 46.9758 75.1098C45.3324 75.1098 44.4175 75.6528 44.2312 76.7387C44.0532 77.8452 43.5979 78.4006 42.8528 78.4006C42.1863 78.4006 41.8551 78.0838 41.8551 77.4545C41.8551 76.8251 42.2981 76.1711 43.1798 75.4594C44.0656 74.7478 45.4441 74.394 47.3152 74.394C48.7061 74.394 49.7824 74.6121 50.5482 75.044C51.314 75.48 51.819 75.9736 52.0633 76.5289C52.3075 77.0842 52.4317 77.9316 52.4317 79.071V84.4679C52.4317 85.7307 52.4979 86.5411 52.6304 86.899C52.7629 87.2568 53.0444 87.4337 53.4873 87.4337C54.2117 87.4337 54.6629 86.9031 54.8368 85.8377ZM50.0887 80.1323L48.2963 80.8481C45.4648 81.9916 44.0532 83.4231 44.0532 85.1507C44.0532 85.8336 44.2354 86.3889 44.5955 86.8044C44.9598 87.2239 45.4276 87.4337 46.0112 87.4337C46.5245 87.4337 47.1248 87.2651 47.8037 86.9319C48.4826 86.5946 49.2484 86.0886 50.0928 85.414V80.1323H50.0887Z" fill="white"/>
<path d="M66.0633 77.8002C66.4359 76.8335 67.0361 76.0232 67.8764 75.3733C68.7126 74.7233 69.5323 74.3942 70.3312 74.3942C71.0515 74.3942 71.6227 74.6164 72.0367 75.0606C72.4507 75.5049 72.6618 75.9615 72.6618 76.4304C72.6618 76.7471 72.5541 77.0186 72.343 77.2449C72.1278 77.4752 71.867 77.5863 71.5606 77.5863C71.0142 77.5863 70.6003 77.1832 70.3146 76.3811C70.1159 75.8381 69.822 75.5666 69.4288 75.5666C68.961 75.5666 68.398 75.8833 67.744 76.5209C67.0899 77.1544 66.6635 77.8166 66.4773 78.4995C66.291 79.1864 66.1999 80.1243 66.1999 81.3213V83.6989C66.1999 85.1222 66.2165 86.0189 66.2579 86.3891C66.2951 86.7593 66.4524 87.0431 66.7256 87.2365C67.003 87.4298 67.4915 87.5285 68.1952 87.5285H68.6588V88.2772H61.5222V87.5285H61.8699C62.524 87.5285 62.9917 87.438 63.2691 87.257C63.5506 87.0802 63.7162 86.8251 63.7741 86.5002C63.8279 86.1752 63.8528 85.2373 63.8528 83.6948V79.931C63.8528 78.4954 63.8362 77.5986 63.7948 77.2325C63.7576 76.8664 63.6003 76.5826 63.3271 76.3852C63.0538 76.1836 62.5695 76.0849 61.8658 76.0849H61.5181V75.3527C62.5405 75.2334 63.8818 74.9125 65.5417 74.3901C65.8605 75.2499 66.0343 76.3852 66.0674 77.7961L66.0633 77.8002Z" fill="white"/>
<path d="M82.8533 74.3942V83.703C82.8533 85.1262 82.8781 86.0229 82.9195 86.3932C82.9651 86.7634 83.1224 87.0472 83.3956 87.2405C83.6688 87.4339 84.1573 87.5326 84.8569 87.5326H85.2004V88.2812H77.9686V87.5326H78.5275C79.3057 87.5326 79.8107 87.4215 80.0467 87.1994C80.2826 86.9773 80.4151 86.7099 80.4565 86.4014C80.4938 86.0888 80.5145 85.192 80.5145 83.703V79.6594C80.5145 78.0963 80.4399 77.1379 80.2951 76.7923C80.146 76.4427 79.9515 76.2247 79.7031 76.1383C79.4547 76.0519 79.0284 76.0067 78.4157 76.0067H77.9728V75.258C79.9184 75.0606 81.4293 74.7726 82.5014 74.3942H82.8616H82.8533ZM79.6907 67.5823C79.6907 67.1134 79.8563 66.7144 80.1916 66.377C80.5227 66.0397 80.9243 65.8711 81.3962 65.8711C81.8681 65.8711 82.2655 66.0397 82.5925 66.377C82.9195 66.7144 83.0851 67.1134 83.0851 67.5823C83.0851 68.0512 82.9195 68.4667 82.5925 68.804C82.2655 69.1413 81.864 69.3099 81.3962 69.3099C80.9284 69.3099 80.5227 69.1413 80.1916 68.804C79.8563 68.4667 79.6907 68.0595 79.6907 67.5823Z" fill="white"/>
<path d="M99.7634 75.6655H95.7108V83.7361C95.7108 84.9743 95.7688 85.8093 95.8764 86.2371C95.984 86.6649 96.22 87.0104 96.5718 87.2737C96.9278 87.5329 97.3045 87.6645 97.7102 87.6645C98.5009 87.6645 99.1839 87.2202 99.7593 86.3276L100.285 86.6402C99.9456 87.356 99.4488 87.899 98.7865 88.2609C98.1242 88.6229 97.4536 88.808 96.7747 88.808C95.9882 88.808 95.2968 88.5777 94.6966 88.117C94.1047 87.6563 93.728 87.1133 93.5831 86.4963C93.4382 85.8751 93.3595 84.7892 93.3595 83.2384V75.6737H91.4139V74.9333C92.3081 74.9128 93.1112 74.5343 93.8232 73.8062C94.531 73.0782 94.9864 72.058 95.1809 70.7417H95.7067V74.9251H99.7593V75.6737L99.7634 75.6655Z" fill="white"/>
<path d="M113.743 85.7556L116.876 78.3432C117.328 77.2531 117.547 76.6484 117.547 76.5291C117.547 75.9862 116.939 75.7023 115.717 75.6818V74.9331H120.445V75.6818C119.712 75.7147 119.178 75.908 118.839 76.2618C118.499 76.6155 118.077 77.393 117.572 78.6023L111.57 92.9583C111.002 94.3281 110.497 95.2618 110.063 95.7596C109.624 96.2573 109.144 96.5041 108.618 96.5041C107.906 96.5041 107.554 96.1833 107.554 95.5416C107.554 94.8011 108.121 94.1718 109.256 93.6617C109.922 93.3655 110.365 93.1146 110.588 92.9089C110.812 92.7033 111.036 92.3248 111.255 91.786L112.538 88.6145L107.5 77.8578C107.053 76.9117 106.681 76.3152 106.387 76.0643C106.093 75.8134 105.592 75.69 104.88 75.69V74.9413H111.048V75.69C109.963 75.7229 109.425 75.945 109.425 76.3605C109.425 76.525 109.636 77.0557 110.067 77.9565L113.751 85.7639L113.743 85.7556Z" fill="white"/>
<path d="M127.623 75.764C127.623 75.295 127.792 74.8837 128.124 74.5341C128.459 74.1803 128.877 74.0034 129.378 74.0034C129.879 74.0034 130.289 74.1762 130.632 74.5176C130.98 74.8631 131.15 75.2786 131.15 75.764C131.15 76.2494 130.976 76.6525 130.624 76.9939C130.272 77.3353 129.858 77.5081 129.374 77.5081C128.889 77.5081 128.467 77.3353 128.128 76.9857C127.788 76.636 127.619 76.2288 127.619 75.764H127.623ZM127.623 87.0637C127.623 86.5865 127.797 86.1752 128.14 85.8337C128.484 85.4923 128.898 85.3196 129.378 85.3196C129.858 85.3196 130.289 85.4923 130.632 85.8337C130.98 86.1752 131.15 86.5865 131.15 87.0637C131.15 87.5408 130.976 87.9686 130.624 88.31C130.272 88.6556 129.858 88.8242 129.374 88.8242C128.889 88.8242 128.467 88.6473 128.128 88.2936C127.788 87.9398 127.619 87.5326 127.619 87.0637H127.623Z" fill="white"/>
<path d="M167.495 88.8202H166.746L162.743 78.2239L158.645 88.8202H157.957L153.826 78.2115C153.354 77.0022 153.007 76.2782 152.775 76.0396C152.543 75.801 152.088 75.6818 151.396 75.6818V74.9331H157.531V75.6818C156.84 75.6818 156.368 75.7435 156.111 75.871C155.859 75.9985 155.734 76.2124 155.734 76.5209C155.734 76.7389 155.95 77.3765 156.376 78.4295L159.112 85.5952L163.281 74.9372H163.918L167.954 85.5952L170.914 78.0018C171.233 77.1955 171.39 76.7142 171.39 76.5497C171.39 76.0149 170.84 75.727 169.734 75.6859V74.9372H174.098V75.6859C173.572 75.6982 173.158 75.7969 172.86 75.9862C172.558 76.1754 172.284 76.6032 172.032 77.2654L171.672 78.2115L167.491 88.8202H167.495Z" fill="white"/>
<path d="M193.611 85.8377H194.212C194.112 87.697 193.198 88.6266 191.463 88.6266C190.722 88.6266 190.134 88.4292 189.704 88.0384C189.269 87.6476 188.992 87.0635 188.859 86.2943C187.762 87.0676 186.765 87.6476 185.858 88.0384C184.952 88.4292 184.144 88.6266 183.432 88.6266C182.522 88.6266 181.739 88.3675 181.081 87.8451C180.423 87.3227 180.096 86.6316 180.096 85.7719C180.096 84.653 180.651 83.674 181.748 82.839C182.849 82.0039 184.372 81.1854 186.309 80.3956L188.859 79.3672V78.7132C188.859 77.7876 188.797 77.1213 188.677 76.7058C188.557 76.2945 188.242 75.9243 187.742 75.5993C187.237 75.2743 186.574 75.1098 185.75 75.1098C184.103 75.1098 183.188 75.6528 183.002 76.7387C182.828 77.8452 182.364 78.4006 181.623 78.4006C180.957 78.4006 180.622 78.0838 180.622 77.4545C180.622 76.8251 181.064 76.1711 181.95 75.4594C182.836 74.7478 184.215 74.394 186.086 74.394C187.477 74.394 188.553 74.6121 189.319 75.044C190.085 75.48 190.59 75.9736 190.838 76.5289C191.082 77.0842 191.206 77.9316 191.206 79.071V84.4679C191.206 85.7307 191.273 86.5411 191.405 86.899C191.538 87.2568 191.823 87.4337 192.262 87.4337C192.986 87.4337 193.438 86.9031 193.611 85.8377ZM188.863 80.1323L187.071 80.8481C184.244 81.9916 182.828 83.4231 182.828 85.1507C182.828 85.8336 183.01 86.3889 183.37 86.8044C183.735 87.2239 184.206 87.4337 184.786 87.4337C185.303 87.4337 185.899 87.2651 186.578 86.9319C187.257 86.5946 188.019 86.0886 188.863 85.414V80.1323Z" fill="white"/>
<path d="M208.15 75.6655H204.097V83.7361C204.097 84.9743 204.151 85.8093 204.258 86.2371C204.37 86.6649 204.602 87.0104 204.954 87.2737C205.31 87.5329 205.687 87.6645 206.096 87.6645C206.883 87.6645 207.566 87.2202 208.146 86.3276L208.671 86.6402C208.332 87.356 207.831 87.899 207.169 88.2609C206.506 88.6229 205.836 88.808 205.157 88.808C204.37 88.808 203.679 88.5777 203.083 88.117C202.487 87.6563 202.114 87.1133 201.965 86.4963C201.82 85.8751 201.746 84.7892 201.746 83.2384V75.6737H199.8V74.9333C200.694 74.9128 201.497 74.5343 202.209 73.8062C202.917 73.0782 203.373 72.058 203.567 70.7417H204.093V74.9251H208.146V75.6737L208.15 75.6655Z" fill="white"/>
<path d="M226.848 79.4659H217.464C217.422 80.1035 217.397 80.5848 217.397 80.8974C217.397 83.2421 217.766 85.0027 218.507 86.1791C219.248 87.3556 220.353 87.9438 221.823 87.9438C223.818 87.9438 225.234 87.0553 226.066 85.2824H226.848C226.496 86.393 225.801 87.261 224.762 87.8821C223.719 88.5073 222.588 88.82 221.359 88.82C220.221 88.82 219.144 88.532 218.13 87.9644C217.116 87.3926 216.288 86.5864 215.642 85.5415C214.996 84.4967 214.674 83.2339 214.674 81.7448C214.674 79.6346 215.295 77.8823 216.545 76.4878C217.795 75.0892 219.351 74.394 221.226 74.394C222.99 74.394 224.352 74.9288 225.316 75.9942C226.281 77.0637 226.79 78.2196 226.844 79.4618L226.848 79.4659ZM223.975 78.7954C224.008 78.5445 224.025 78.3224 224.025 78.1291C224.025 77.1747 223.739 76.4302 223.176 75.9037C222.613 75.3772 221.918 75.1098 221.094 75.1098C219.099 75.1098 217.911 76.3397 217.526 78.7954H223.971H223.975Z" fill="white"/>
<path d="M238.406 77.8002C238.774 76.8335 239.383 76.0232 240.219 75.3733C241.055 74.7233 241.871 74.3942 242.674 74.3942C243.394 74.3942 243.965 74.6164 244.379 75.0606C244.793 75.5049 245.004 75.9615 245.004 76.4304C245.004 76.7471 244.897 77.0186 244.685 77.2449C244.47 77.4752 244.214 77.5863 243.907 77.5863C243.361 77.5863 242.947 77.1832 242.661 76.3811C242.467 75.8381 242.173 75.5666 241.775 75.5666C241.303 75.5666 240.74 75.8833 240.086 76.5209C239.428 77.1544 239.01 77.8166 238.824 78.4995C238.642 79.1864 238.546 80.1243 238.546 81.3213V83.6989C238.546 85.1222 238.563 86.0189 238.604 86.3891C238.642 86.7593 238.799 87.0431 239.076 87.2365C239.354 87.4298 239.838 87.5285 240.546 87.5285H241.005V88.2772H233.873V87.5285H234.216C234.871 87.5285 235.342 87.438 235.616 87.257C235.897 87.0802 236.063 86.8251 236.117 86.5002C236.17 86.1752 236.199 85.2373 236.199 83.6948V79.931C236.199 78.4954 236.179 77.5986 236.141 77.2325C236.104 76.8664 235.947 76.5826 235.674 76.3852C235.4 76.1836 234.912 76.0849 234.212 76.0849H233.869V75.3527C234.891 75.2334 236.232 74.9125 237.888 74.3901C238.207 75.2499 238.381 76.3852 238.414 77.7961L238.406 77.8002Z" fill="white"/>
<path d="M126.207 21.2113H119.381C118.776 21.2113 118.288 21.6967 118.288 22.2972V25.2384C118.288 25.8389 118.776 26.3243 119.381 26.3243H126.207C126.811 26.3243 127.3 25.8389 127.3 25.2384V22.2972C127.3 21.6967 126.811 21.2113 126.207 21.2113ZM137.359 6.01615C137.156 5.60892 135.836 3.00921 135.836 3.00921C135.836 3.00921 136.336 2.71304 136.568 2.60198C136.796 2.49092 136.966 2.34694 136.655 1.76283C136.32 1.13759 135.997 1.31858 135.997 1.31858C135.997 1.31858 135.558 1.56127 135.066 1.80808C134.242 0.611063 133.103 0.5 132.76 0.5C132.536 0.5 131.419 0.5 131.079 0.5C130.74 0.5 130.421 0.545248 130.28 0.72624C130.144 0.907233 129.825 1.06354 129.44 1.06354H117.903C117.791 1.07177 117.766 0.993616 117.696 0.948368C116.922 0.520567 116.069 0.936027 115.887 1.1417C115.705 1.34326 114.976 2.22765 114.546 2.71304C114.111 3.19843 113.734 3.29304 113.441 3.37942C113.623 3.14084 113.486 2.9146 113.486 2.9146L113.312 2.5773L113.552 1.93149L113.768 1.82042L113.643 1.52425C113.643 1.52425 113.507 1.58184 113.254 1.70524C113.006 1.82865 113.006 1.94383 113.006 1.94383C112.894 2.35106 112.596 2.37163 112.596 2.37163C112.596 2.37163 111.938 1.12936 111.847 0.968935C111.756 0.812623 111.574 0.314894 109.367 1.48723C107.161 2.66368 107.682 3.11616 107.682 3.11616L108.436 4.55999L108.208 4.74098L108.759 5.82693C108.759 5.82693 108.618 5.89275 108.142 6.2136C107.666 6.53034 107.144 6.84707 107.144 7.70267V39.2694C107.144 41.6429 107.827 42.7288 110.489 42.7288H134.792C136.361 42.7288 137.864 41.9143 137.864 39.2036V8.00707C137.864 6.44807 137.566 6.42339 137.363 6.02027L137.359 6.01615ZM119.907 3.39588H128.004C128.695 3.39588 129.258 3.9512 129.258 4.63814C129.258 5.32509 128.695 5.88041 128.004 5.88041H119.907C119.215 5.88041 118.652 5.32509 118.652 4.63814C118.652 3.9512 119.211 3.39588 119.907 3.39588ZM130.169 28.233C130.169 28.233 132.88 32.9347 133.447 34.0124C134.196 35.4398 133.174 36.0527 133.174 36.0527C133.174 36.0527 131.808 36.7355 131.125 35.5097C130.545 34.469 128.658 31.1576 127.983 30.1375C127.118 28.8253 126.753 28.3687 125.594 28.3687H119.886C118.714 28.3687 118.35 28.8212 117.477 30.1375C116.798 31.1576 114.898 34.469 114.314 35.5097C113.627 36.7355 112.248 36.0527 112.248 36.0527C112.248 36.0527 111.218 35.4398 111.975 34.0124C112.546 32.9347 115.279 28.233 115.279 28.233C115.279 28.233 115.966 27.1923 115.966 26.3284V21.0755C115.966 20.2158 115.279 19.1751 115.279 19.1751C115.279 19.1751 112.551 14.4858 111.975 13.408C111.218 11.9848 112.248 11.3719 112.248 11.3719C112.248 11.3719 113.623 10.6932 114.314 11.9149C114.898 12.9515 116.802 16.2546 117.477 17.2747C118.35 18.5869 118.714 19.0353 119.886 19.0353H125.594C126.753 19.0353 127.118 18.5869 127.983 17.2747C128.653 16.2587 130.545 12.9515 131.125 11.9149C131.808 10.6932 133.174 11.3719 133.174 11.3719C133.174 11.3719 134.196 11.9807 133.447 13.408C132.88 14.4817 130.169 19.1751 130.169 19.1751C130.169 19.1751 129.486 20.2158 129.486 21.0755V26.3284C129.486 27.1881 130.169 28.233 130.169 28.233Z" fill="#FFCA0A"/>
</g>
<defs>
<clipPath id="clip0_3_191">
<rect width="245" height="96" fill="white" transform="translate(0 0.5)"/>
</clipPath>
</defs>
</svg>
