<svg width="344" height="352" viewBox="0 0 344 352" fill="none" xmlns="http://www.w3.org/2000/svg">
<rect width="344" height="352" fill="#F2F2F2"/>
<path fill-rule="evenodd" clip-rule="evenodd" d="M243.058 247.618C218.273 269.436 172.642 259.377 152.703 229.449C132.767 199.517 140.879 159.113 170.822 139.176L170.809 139.158C171.358 138.82 171.898 138.479 172.429 138.13C185.649 129.373 192.748 114.515 185.942 100.112C179.131 85.7077 161.923 79.5465 147.505 86.3487C133.09 93.1526 126.926 110.341 133.733 124.741C135.753 129.015 138.694 132.556 142.202 135.258C116.128 164.149 111.852 208.045 134.418 241.92C161.125 282.013 215.31 292.885 255.439 266.204L243.058 247.618Z" fill="#D9D9D9"/>
<path fill-rule="evenodd" clip-rule="evenodd" d="M185.94 100.111C192.751 114.516 185.647 129.374 172.427 138.129C171.896 138.478 171.357 138.821 170.809 139.157L170.82 139.176C170.834 139.167 170.848 139.154 170.862 139.146L243.098 247.587C243.08 247.602 243.06 247.617 243.041 247.63C243.048 247.627 243.055 247.62 243.056 247.617L243.085 247.658C257.964 230.385 266.69 207.739 265.897 183.169C264.344 135.182 227.16 96.7624 180.542 92.3617C182.697 94.5794 184.546 97.1615 185.94 100.111Z" fill="#C9C9C8"/>
<path fill-rule="evenodd" clip-rule="evenodd" d="M142.202 135.257C138.694 132.555 135.754 129.017 133.733 124.744C129.829 116.49 130.207 107.331 133.939 99.7234C99.4995 114.686 75.9209 149.477 77.2057 189.255C77.9816 213.317 87.7417 234.955 103.135 251.128C103.135 251.131 103.132 251.134 103.129 251.134C103.301 251.317 103.488 251.486 103.666 251.666C104.367 252.395 105.072 253.127 105.798 253.834C105.808 253.828 105.821 253.824 105.829 253.819C107.195 255.146 108.598 256.433 110.035 257.685C115.732 249.586 124.21 243.666 133.967 241.212C111.925 207.434 116.306 163.948 142.202 135.257Z" fill="#C9C9C8"/>
<path fill-rule="evenodd" clip-rule="evenodd" d="M162.579 70.9648C139.642 69.0733 119.512 86.1128 117.62 109.027C116.393 123.817 123.076 137.425 134.126 145.736C136.53 142.074 139.218 138.563 142.202 135.257C138.695 132.557 135.751 129.015 133.733 124.742C126.924 110.34 133.092 93.1535 147.505 86.3497C161.69 79.6584 178.553 85.5298 185.577 99.439L196.921 94.9257C190.81 81.8115 178.042 72.2384 162.579 70.9648Z" fill="#797877"/>
<path fill-rule="evenodd" clip-rule="evenodd" d="M133.968 241.212C124.193 243.673 115.7 249.607 110.003 257.724C113.389 260.543 116.981 263.119 120.745 265.446C123.51 261.597 127.249 258.362 131.838 256.194C135.646 254.394 139.647 253.522 143.602 253.445C140.28 249.918 137.193 246.086 134.421 241.922C134.262 241.685 134.121 241.445 133.968 241.212Z" fill="#222120"/>
<path fill-rule="evenodd" clip-rule="evenodd" d="M170.862 139.146C140.887 159.072 132.755 199.501 152.704 229.45C172.652 259.393 218.319 269.448 243.098 247.587L170.862 139.146Z" fill="#222120"/>
<path fill-rule="evenodd" clip-rule="evenodd" d="M174.445 113.3C177.968 111.637 179.475 107.435 177.809 103.914C176.148 100.394 171.942 98.8903 168.416 100.55C164.894 102.213 163.386 106.416 165.047 109.936C166.716 113.455 170.919 114.963 174.445 113.3Z" fill="#1F1E1C"/>
<path fill-rule="evenodd" clip-rule="evenodd" d="M187.432 119.054L230.876 89.3738C231.761 88.7179 231.216 87.3151 230.118 87.4277L196.924 94.9256H196.92L185.577 99.4389C185.693 99.6658 185.826 99.8778 185.938 100.111C188.972 106.529 189.231 113.033 187.432 119.054Z" fill="#222120"/>
</svg>
