<svg width="344" height="352" viewBox="0 0 344 352" fill="none" xmlns="http://www.w3.org/2000/svg">
<rect width="344" height="352" fill="#F2F2F2"/>
<path d="M188.897 174.161H157.804C156.482 174.161 155.214 174.681 154.28 175.607C153.345 176.534 152.82 177.79 152.82 179.1V192.451C152.82 193.761 153.345 195.018 154.28 195.944C155.214 196.87 156.482 197.391 157.804 197.391H188.897C190.218 197.391 191.486 196.87 192.421 195.944C193.355 195.018 193.881 193.761 193.881 192.451V179.1C193.881 177.79 193.355 176.534 192.421 175.607C191.486 174.681 190.218 174.161 188.897 174.161V174.161ZM239.706 105.111C238.778 103.261 232.762 91.4497 232.762 91.4497C232.762 91.4497 235.056 90.1064 236.088 89.5897C237.12 89.073 237.902 88.4323 236.495 85.7972C234.983 82.9451 233.492 83.7305 233.492 83.7305C233.492 83.7305 231.469 84.8362 229.238 85.9625C228.118 84.1938 226.576 82.7249 224.749 81.6852C222.922 80.6454 220.865 80.0667 218.759 80H211.095C209.531 80 208.082 80.1963 207.456 81.0334C206.971 81.5523 206.377 81.9591 205.716 82.2252C205.054 82.4913 204.342 82.6101 203.63 82.5731H151.058C150.547 82.6248 150.443 82.2631 150.119 82.0667C148.809 81.399 147.33 81.1254 145.865 81.2797C144.4 81.4339 143.012 82.0092 141.872 82.9348C141.059 83.8648 137.701 87.864 135.772 90.0754C134.466 91.598 132.701 92.6633 130.736 93.1135C130.973 92.8176 131.118 92.4604 131.155 92.0847C131.192 91.709 131.119 91.3307 130.945 90.995L130.163 89.4657L131.257 86.5412L132.238 86.0142L131.664 84.6812C131.664 84.6812 131.039 84.9395 129.902 85.5079C128.765 86.0762 128.765 86.5412 128.765 86.5412C128.244 88.391 126.899 88.4943 126.899 88.4943C126.899 88.4943 123.886 82.8418 123.479 82.1184C123.072 81.3951 122.238 79.1423 112.177 84.4848C102.115 89.8274 104.502 91.8838 104.502 91.8838L107.922 98.456L106.88 99.2827L109.372 104.212C109.372 104.212 108.746 104.522 106.557 105.958C104.367 107.395 102 108.841 102 112.747V256.272C102 267.06 105.128 272 117.244 272H227.997C235.15 272 242 268.29 242 255.962V114.153C242 107.064 240.645 106.961 239.706 105.111V105.111ZM160.181 93.1858H197.092C198.605 93.1858 200.055 93.7813 201.125 94.8414C202.195 95.9014 202.795 97.3392 202.795 98.8383C202.795 100.337 202.195 101.775 201.125 102.835C200.055 103.895 198.605 104.491 197.092 104.491H160.181C158.669 104.491 157.218 103.895 156.148 102.835C155.079 101.775 154.478 100.337 154.478 98.8383C154.478 97.3392 155.079 95.9014 156.148 94.8414C157.218 93.7813 158.669 93.1858 160.181 93.1858ZM206.945 206.081C206.945 206.081 219.291 227.441 221.887 232.339C225.296 238.829 220.625 241.64 220.625 241.64C220.625 241.64 214.369 244.74 211.304 239.17C208.666 234.447 200.053 219.371 197.029 214.731C193.088 208.747 191.42 206.691 186.133 206.691H160.067C154.739 206.691 153.06 208.758 149.087 214.731C146.011 219.371 137.336 234.416 134.677 239.139C131.549 244.709 125.293 241.609 125.293 241.609C125.293 241.609 120.601 238.829 124.053 232.308C126.649 227.41 139.098 206.05 139.098 206.05C139.098 206.05 142.226 201.307 142.226 197.391V173.52C142.226 169.614 139.098 164.881 139.098 164.881C139.098 164.881 126.628 143.594 124.042 138.716C120.591 132.237 125.283 129.467 125.283 129.467C125.283 129.467 131.539 126.367 134.667 131.937C137.326 136.649 146.001 151.654 149.077 156.283C153.049 162.246 154.728 164.292 160.056 164.292H186.123C191.409 164.292 193.078 162.225 197.019 156.283C200.074 151.654 208.687 136.649 211.324 131.937C214.453 126.378 220.646 129.467 220.646 129.467C220.646 129.467 225.317 132.237 221.908 138.716C219.311 143.594 206.966 164.912 206.966 164.912C206.966 164.912 203.838 169.645 203.838 173.551V197.422C203.838 201.38 206.945 206.081 206.945 206.081V206.081Z" fill="#222120"/>
</svg>
