<?xml version="1.0" encoding="UTF-8"?>
<svg width="16px" height="14px" viewBox="0 0 16 14" version="1.1" xmlns="http://www.w3.org/2000/svg" xmlns:xlink="http://www.w3.org/1999/xlink">
    <!-- Generator: Sketch 51.2 (57519) - http://www.bohemiancoding.com/sketch -->
    <title>twitter</title>
    <desc>Created with Sketch.</desc>
    <defs></defs>
    <g id="Page-1" stroke="none" stroke-width="1" fill="none" fill-rule="evenodd">
        <g id="Desktop-HD" transform="translate(-956.000000, -100.000000)" fill="#000000">
            <path d="M972,101.667187 C971.554688,102.339062 971,102.909374 970.367188,103.370312 L970.367188,103.799999 C970.367188,108.135937 967.070312,113.135937 961.039062,113.135937 C959.1875,113.135937 957.445312,112.729687 956,111.799999 C956.257812,111.839062 956.515625,111.854687 956.78125,111.854687 C958.3125,111.854687 959.742188,111.190624 960.851562,110.299999 C959.429688,110.284374 958.203125,109.315624 957.796875,108.018749 C958,108.057812 958.203125,108.081249 958.40625,108.081249 C958.703125,108.081249 959,108.042187 959.28125,107.964062 C957.78125,107.667187 956.648438,106.339062 956.648438,104.745312 L956.648438,104.706249 C957.09375,104.948437 957.59375,105.096874 958.132812,105.112499 C957.242188,104.518749 956.664062,103.518749 956.664062,102.393749 C956.664062,101.784374 956.835938,101.284374 957.109375,100.799999 C958.742188,102.784374 961.148438,104.018749 963.867188,104.167187 C963.8125,103.932812 963.796875,103.667187 963.796875,103.409374 C963.796875,101.596874 965.257812,100.135937 967.070312,100.135937 C968.015625,100.135937 968.867188,100.542187 969.484375,101.167187 C970.21875,101.018749 970.929688,100.745312 971.554688,100.370312 C971.3125,101.135937 970.796875,101.784374 970.109375,102.190624 C970.78125,102.112499 971.40625,101.932812 972,101.667187 Z" id="twitter"></path>
        </g>
    </g>
</svg>