<?xml version="1.0" encoding="UTF-8"?>
<svg width="16px" height="17px" viewBox="0 0 16 17" version="1.1" xmlns="http://www.w3.org/2000/svg" xmlns:xlink="http://www.w3.org/1999/xlink">
    <!-- Generator: Sketch 51.2 (57519) - http://www.bohemiancoding.com/sketch -->
    <title>dribbble</title>
    <desc>Created with Sketch.</desc>
    <defs></defs>
    <g id="Page-1" stroke="none" stroke-width="1" fill="none" fill-rule="evenodd">
        <g id="Desktop-HD" transform="translate(-992.000000, -98.000000)" fill="#000000">
            <g id="dribbble" transform="translate(992.000000, 98.000000)">
                <path d="M13.3359375,2.85468674 C12.2578125,4.09687424 10.8671875,5.05781174 9.109375,5.76093674 C8.28125,4.20624924 7.2578125,2.61249924 6,1.05781174 C6.6484375,0.893749237 7.3125,0.799999237 8,0.799999237 C10.0546875,0.799999237 11.9296875,1.58124924 13.3359375,2.85468674 Z" id="Path"></path>
                <path d="M4.6484375,1.54218674 C5.9296875,3.09687424 6.9609375,4.66718674 7.796875,6.20624924 C5.71875,6.81562424 3.203125,7.15156174 0.1640625,7.20624924 C0.6640625,4.69062424 2.3671875,2.59687424 4.6484375,1.54218674 Z" id="Path"></path>
                <path d="M14.1875,3.72968674 C15.3125,5.09687424 15.984375,6.85468674 16,8.76093674 C14.015625,8.31562424 12.1484375,8.22968674 10.40625,8.51874924 C10.1875,7.96406174 9.9296875,7.40937424 9.6640625,6.83906174 C11.515625,6.09687424 13.015625,5.05781174 14.1875,3.72968674 Z" id="Path"></path>
                <path d="M8.4453125,9.01874924 C5.9296875,9.90937424 3.796875,11.6515617 2.109375,14.2296867 C0.796875,12.7999992 0,10.8937492 0,8.79999924 L0,8.43281174 C3.3515625,8.37031174 6.09375,8.00312424 8.3515625,7.29999924 C8.609375,7.81562424 8.8359375,8.31562424 9.0546875,8.83906174 C8.8515625,8.89374924 8.6484375,8.94843674 8.4453125,9.01874924 Z" id="Path"></path>
                <path d="M10.8515625,9.69062424 C12.609375,9.43281174 14.3515625,9.61249924 15.90625,10.0031242 C15.5703125,12.2843742 14.2578125,14.2453117 12.40625,15.4640617 C12.09375,13.7453117 11.6328125,11.7843742 10.8515625,9.69062424 Z" id="Path"></path>
                <path d="M9.5,9.96406174 C10.3515625,12.2296867 10.8359375,14.3390617 11.1484375,16.1515617 C10.1640625,16.5812492 9.109375,16.7999992 8,16.7999992 C6.1328125,16.7999992 4.390625,16.1515617 3.0390625,15.0812492 C4.90625,12.1359367 7.1875,10.6124992 9.5,9.96406174 Z" id="Path"></path>
            </g>
        </g>
    </g>
</svg>